<svg width="28" height="28" viewBox="0 0 28 28" fill="none" xmlns="http://www.w3.org/2000/svg">
<g clip-path="url(#clip0_80_1676)">
<path fill-rule="evenodd" clip-rule="evenodd" d="M13.6154 0C6.09288 0 0 6.09288 0 13.6154C0 19.6402 3.8974 24.7289 9.30952 26.533C9.99029 26.6521 10.2456 26.2437 10.2456 25.8862C10.2456 25.5629 10.2286 24.4907 10.2286 23.3504C6.80769 23.9801 5.92269 22.5164 5.65038 21.7506C5.49721 21.3591 4.83346 20.1508 4.25481 19.8274C3.77827 19.5721 3.0975 18.9424 4.23779 18.9254C5.31 18.9084 6.07587 19.9125 6.33115 20.321C7.55654 22.3803 9.51375 21.8016 10.2966 21.4442C10.4158 20.5592 10.7732 19.9636 11.1646 19.6232C8.13519 19.2828 4.96962 18.1085 4.96962 12.9006C4.96962 11.4199 5.49721 10.1945 6.36519 9.24144C6.22904 8.90106 5.7525 7.50548 6.50135 5.63337C6.50135 5.63337 7.64163 5.27596 10.2456 7.02894C11.3348 6.7226 12.4921 6.56942 13.6494 6.56942C14.8067 6.56942 15.964 6.7226 17.0533 7.02894C19.6572 5.25894 20.7975 5.63337 20.7975 5.63337C21.5463 7.50548 21.0698 8.90106 20.9337 9.24144C21.8016 10.1945 22.3292 11.4029 22.3292 12.9006C22.3292 18.1255 19.1466 19.2828 16.1172 19.6232C16.6108 20.0487 17.0363 20.8656 17.0363 22.142C17.0363 23.9631 17.0192 25.4267 17.0192 25.8862C17.0192 26.2437 17.2745 26.6691 17.9553 26.533C20.6581 25.6204 23.0068 23.8833 24.6707 21.566C26.3346 19.2488 27.23 16.4681 27.2308 13.6154C27.2308 6.09288 21.1379 0 13.6154 0Z" fill="white"/>
</g>
<defs>
<clipPath id="clip0_80_1676">
<rect width="27.2308" height="27.2308" fill="white"/>
</clipPath>
</defs>
</svg>
