<svg width="28" height="28" viewBox="0 0 28 28" fill="none" xmlns="http://www.w3.org/2000/svg">
<path d="M15.4677 12.1476C14.5462 11.2265 13.2966 10.7091 11.9937 10.7091C10.6908 10.7091 9.44118 11.2265 8.51968 12.1476L5.04456 15.6216C4.12305 16.5432 3.60535 17.793 3.60535 19.0962C3.60535 20.3994 4.12305 21.6493 5.04456 22.5708C5.96607 23.4923 7.21591 24.01 8.51912 24.01C9.82233 24.01 11.0722 23.4923 11.9937 22.5708L13.7307 20.8338" stroke="white" stroke-width="2" stroke-linecap="round" stroke-linejoin="round"/>
<path d="M11.9937 15.6216C12.9151 16.5428 14.1647 17.0602 15.4677 17.0602C16.7706 17.0602 18.0202 16.5428 18.9417 15.6216L22.4168 12.1476C23.3383 11.2261 23.856 9.97629 23.856 8.67308C23.856 7.36987 23.3383 6.12003 22.4168 5.19852C21.4953 4.27701 20.2454 3.75931 18.9422 3.75931C17.639 3.75931 16.3892 4.27701 15.4677 5.19852L13.7307 6.93552" stroke="white" stroke-width="2" stroke-linecap="round" stroke-linejoin="round"/>
</svg>
