<svg width="66" height="25" viewBox="0 0 66 25" fill="none" xmlns="http://www.w3.org/2000/svg">
<path fill-rule="evenodd" clip-rule="evenodd" d="M23.2968 24.3161C24.5746 24.3161 25.7492 23.6146 26.3551 22.4897C28.3582 18.7711 32.7225 10.6693 32.7225 10.6693C32.7225 10.6693 36.9871 18.5778 38.9636 22.243C39.5698 23.3671 40.7439 24.0679 42.0211 24.0679C43.6534 24.0679 45.6546 24.0679 45.6546 24.0679L32.7522 0L19.7347 24.3161H23.2968ZM17.6167 21.8348L28.0379 2.23311H0C0 2.23311 0.891412 4.01593 1.60561 5.44442C2.14228 6.51766 3.2392 7.19557 4.43908 7.19557H19.934L18.5974 9.67684H3.96998C3.96998 9.67684 4.86139 11.4597 5.5756 12.8881C6.11226 13.9613 7.2091 14.6392 8.40906 14.6392H15.9242L14.7213 16.8723H7.6918C7.6918 16.8723 8.58322 18.6552 9.29742 20.0836C9.83408 21.1569 10.931 21.8348 12.1309 21.8348C14.3363 21.8348 17.6167 21.8348 17.6167 21.8348ZM48.1358 21.8348L37.7146 2.23311H65.7525C65.7525 2.23311 64.8611 4.01593 64.1469 5.44442C63.6102 6.51766 62.5133 7.19557 61.3134 7.19557H45.8185L47.1551 9.67684H61.7825C61.7825 9.67684 60.8911 11.4597 60.1769 12.8881C59.6402 13.9613 58.5434 14.6392 57.3434 14.6392H49.8283L51.0312 16.8723H58.0607C58.0607 16.8723 57.1693 18.6552 56.4551 20.0836C55.9184 21.1569 54.8215 21.8348 53.6216 21.8348C51.4162 21.8348 48.1358 21.8348 48.1358 21.8348Z" fill="white"/>
</svg>
