<svg width="33" height="33" viewBox="0 0 33 33" fill="none" xmlns="http://www.w3.org/2000/svg">
<rect width="33" height="33" rx="16.5" fill="#C9D0DA"/>
<path fill-rule="evenodd" clip-rule="evenodd" d="M17 7C11.475 7 7 11.475 7 17C7 21.425 9.8625 25.1625 13.8375 26.4875C14.3375 26.575 14.525 26.275 14.525 26.0125C14.525 25.775 14.5125 24.9875 14.5125 24.15C12 24.6125 11.35 23.5375 11.15 22.975C11.0375 22.6875 10.55 21.8 10.125 21.5625C9.775 21.375 9.275 20.9125 10.1125 20.9C10.9 20.8875 11.4625 21.625 11.65 21.925C12.55 23.4375 13.9875 23.0125 14.5625 22.75C14.65 22.1 14.9125 21.6625 15.2 21.4125C12.975 21.1625 10.65 20.3 10.65 16.475C10.65 15.3875 11.0375 14.4875 11.675 13.7875C11.575 13.5375 11.225 12.5125 11.775 11.1375C11.775 11.1375 12.6125 10.875 14.525 12.1625C15.325 11.9375 16.175 11.825 17.025 11.825C17.875 11.825 18.725 11.9375 19.525 12.1625C21.4375 10.8625 22.275 11.1375 22.275 11.1375C22.825 12.5125 22.475 13.5375 22.375 13.7875C23.0125 14.4875 23.4 15.375 23.4 16.475C23.4 20.3125 21.0625 21.1625 18.8375 21.4125C19.2 21.725 19.5125 22.325 19.5125 23.2625C19.5125 24.6 19.5 25.675 19.5 26.0125C19.5 26.275 19.6875 26.5875 20.1875 26.4875C22.1726 25.8173 23.8976 24.5414 25.1197 22.8395C26.3418 21.1375 26.9994 19.0952 27 17C27 11.475 22.525 7 17 7Z" fill="#6F7A88"/>
</svg>
