<svg width="33" height="33" viewBox="0 0 33 33" fill="none" xmlns="http://www.w3.org/2000/svg">
<rect width="33" height="33" rx="16.5" fill="#C9D0DA"/>
<path fill-rule="evenodd" clip-rule="evenodd" d="M14.8575 13.4742H17.9525V15.0158C18.3984 14.1292 19.5417 13.3325 21.2592 13.3325C24.5517 13.3325 25.3334 15.0975 25.3334 18.3358V24.3333H22V19.0733C22 17.2292 21.5542 16.1892 20.4192 16.1892C18.845 16.1892 18.1909 17.31 18.1909 19.0725V24.3333H14.8575V13.4742ZM9.14169 24.1917H12.475V13.3325H9.14169V24.1917ZM12.9525 9.79166C12.9526 10.0711 12.8972 10.3477 12.7895 10.6055C12.6818 10.8633 12.5239 11.0971 12.325 11.2933C11.922 11.6938 11.3765 11.918 10.8084 11.9167C10.2412 11.9163 9.69695 11.6927 9.29335 11.2942C9.0952 11.0973 8.93784 10.8632 8.83031 10.6053C8.72277 10.3475 8.66717 10.071 8.66669 9.79166C8.66669 9.22749 8.89169 8.68749 9.29419 8.28916C9.69742 7.89012 10.2419 7.66641 10.8092 7.66666C11.3775 7.66666 11.9225 7.89082 12.325 8.28916C12.7267 8.68749 12.9525 9.22749 12.9525 9.79166Z" fill="#6F7A88"/>
</svg>
