<svg width="33" height="33" viewBox="0 0 33 33" fill="none" xmlns="http://www.w3.org/2000/svg">
<rect width="33" height="33" rx="16.5" fill="#C9D0DA"/>
<path d="M26.7025 12.1142C26.0067 12.4225 25.2592 12.6308 24.4733 12.725C25.2842 12.2398 25.8908 11.4762 26.18 10.5767C25.4182 11.0292 24.5844 11.3477 23.715 11.5183C23.1303 10.8941 22.3559 10.4803 21.5119 10.3412C20.668 10.2022 19.8017 10.3457 19.0477 10.7494C18.2936 11.1531 17.694 11.7945 17.3418 12.5739C16.9896 13.3534 16.9046 14.2273 17.1 15.06C15.5564 14.9825 14.0463 14.5813 12.6678 13.8824C11.2893 13.1836 10.0732 12.2026 9.09832 11.0033C8.76499 11.5783 8.57332 12.245 8.57332 12.955C8.57295 13.5942 8.73035 14.2235 9.03155 14.7873C9.33276 15.351 9.76846 15.8317 10.3 16.1867C9.68355 16.1671 9.08072 16.0005 8.54166 15.7008V15.7508C8.54159 16.6473 8.85168 17.5162 9.41931 18.21C9.98693 18.9039 10.7771 19.38 11.6558 19.5575C11.084 19.7123 10.4844 19.7351 9.90249 19.6242C10.1504 20.3955 10.6333 21.07 11.2836 21.5533C11.9339 22.0365 12.7191 22.3043 13.5292 22.3192C12.154 23.3987 10.4557 23.9843 8.70749 23.9817C8.39781 23.9818 8.08839 23.9637 7.78082 23.9275C9.55539 25.0685 11.6211 25.674 13.7308 25.6717C20.8725 25.6717 24.7767 19.7567 24.7767 14.6267C24.7767 14.46 24.7725 14.2917 24.765 14.125C25.5244 13.5758 26.1799 12.8958 26.7008 12.1167L26.7025 12.1142Z" fill="#6F7A88"/>
</svg>
