<svg width="33" height="33" viewBox="0 0 33 33" fill="none" xmlns="http://www.w3.org/2000/svg">
<rect width="33" height="33" rx="16.5" fill="#C9D0DA"/>
<path d="M22.47 12.21C21.4271 12.2283 20.4224 12.6052 19.6247 13.2772C18.8271 13.9492 18.2851 14.8754 18.09 15.9C17.1107 14.3779 16.3436 12.7294 15.81 11H13.55V17C13.55 17.5676 13.3245 18.1119 12.9232 18.5132C12.5219 18.9145 11.9776 19.14 11.41 19.14C10.8424 19.14 10.2981 18.9145 9.89679 18.5132C9.49546 18.1119 9.27 17.5676 9.27 17V11L7 11.05V17.05C7.00663 18.217 7.47656 19.3335 8.30641 20.1539C9.13626 20.9744 10.258 21.4316 11.425 21.425C12.592 21.4184 13.7085 20.9484 14.5289 20.1186C15.3494 19.2887 15.8066 18.167 15.8 17V16C16.2798 16.9411 16.8314 17.8437 17.45 18.7L16.07 25.31H18.39L19.39 20.5C20.3168 21.0956 21.3984 21.4051 22.5 21.39C23.712 21.39 24.8744 20.9085 25.7315 20.0515C26.5885 19.1944 27.07 18.032 27.07 16.82C27.07 15.608 26.5885 14.4456 25.7315 13.5885C24.8744 12.7315 23.712 12.25 22.5 12.25L22.47 12.21ZM22.47 19.04C21.5303 19.0097 20.6298 18.6565 19.92 18.04L20.15 17.13V17.08C20.31 16.08 20.81 14.48 22.5 14.48C22.7963 14.4774 23.0902 14.5333 23.3649 14.6445C23.6395 14.7558 23.8895 14.9202 24.1004 15.1284C24.3113 15.3365 24.479 15.5843 24.594 15.8574C24.7089 16.1305 24.7687 16.4237 24.77 16.72C24.7486 17.32 24.504 17.8903 24.0841 18.3194C23.6643 18.7486 23.0994 19.0055 22.5 19.04H22.47Z" fill="#6F7A88"/>
</svg>
