<svg width="85" height="84" viewBox="0 0 85 84" fill="none" xmlns="http://www.w3.org/2000/svg">
<circle cx="42.4539" cy="41.8908" r="41.8908" fill="#EAE9FB"/>
<g clip-path="url(#clip0_78_1611)">
<path d="M59.6648 41.6498V42.7823L59.6321 42.9638C59.5772 43.4588 59.5382 43.9537 59.4622 44.4371C59.2027 46.0055 58.6407 47.5085 57.8073 48.8624C56.5818 50.8969 54.8004 52.5388 52.6729 53.5947C51.4346 54.2167 50.0969 54.6168 48.7204 54.7767C48.4123 54.8147 48.1052 54.8485 47.8023 54.8812H35.9344C35.8743 54.8707 35.8194 54.8538 35.7582 54.8485C34.5682 54.7765 33.4007 54.4916 32.3113 54.0074C29.9198 52.9414 28.1393 51.2201 26.9742 48.8518C26.462 47.8026 26.1295 46.6749 25.9906 45.5157L25.8914 44.6693V43.5696C25.9019 43.5094 25.9188 43.4482 25.9241 43.3881C25.9842 42.3379 26.1985 41.31 26.5731 40.3264C27.5789 37.6826 29.3383 35.7196 31.8332 34.4447C33.1133 33.7961 34.5167 33.427 35.9503 33.3619C36.6595 33.3292 37.3687 33.3619 38.0663 33.4611C38.103 33.4653 38.1403 33.4616 38.1754 33.4501C38.2106 33.4386 38.2428 33.4197 38.27 33.3946C39.2673 32.3536 40.437 31.4927 41.7274 30.8501C42.9726 30.2238 44.3178 29.8202 45.702 29.6575C46.0324 29.6195 46.3617 29.5857 46.6857 29.553H47.6967C47.7632 29.5635 47.8339 29.5751 47.8951 29.5804C48.4007 29.6406 48.9009 29.6796 49.4012 29.7672C50.9346 30.0311 52.408 30.5968 53.7219 31.4326C55.7454 32.6945 57.3664 34.508 58.3941 36.66C59.0094 37.9243 59.4052 39.2879 59.5646 40.6842L59.6638 41.6519L59.6648 41.6498ZM40.7776 34.3328C40.7998 34.3603 40.805 34.3772 40.8156 34.3772C41.5079 34.7286 42.1728 35.136 42.7997 35.5972C42.8377 35.6246 42.9369 35.6141 42.9865 35.5866C44.7015 34.4764 46.5706 34.0975 48.5716 34.4542C50.5336 34.812 52.1336 35.8062 53.3536 37.4008C54.733 39.2034 55.2607 41.2435 54.8818 43.5073C54.6232 45.025 54.0238 46.3927 53.0074 47.5315C51.1499 49.6148 48.8239 50.4782 46.0873 50.1151C44.405 49.8892 42.9485 49.1473 41.7443 47.9104C40.1992 46.3273 38.6436 44.7495 37.0943 43.1664C36.8853 42.9522 36.6605 42.7875 36.3629 42.7485C36.1137 42.714 35.8601 42.7613 35.6401 42.8833C35.4201 43.0053 35.2456 43.1954 35.1429 43.425C34.9445 43.8429 34.973 44.321 35.4067 44.7548C37.1323 46.4803 38.842 48.2228 40.5686 49.9494C40.8652 50.246 41.1839 50.5214 41.5195 50.7684C42.7786 51.6971 44.2023 52.2143 45.7411 52.4232C46.9506 52.5826 48.1484 52.5499 49.3357 52.2744C51.6059 51.7573 53.4855 50.5816 54.9641 48.7621C56.1744 47.2847 56.9423 45.4953 57.1794 43.6002C57.3318 42.4943 57.3022 41.371 57.0918 40.2747C56.7456 38.4879 56.0037 36.889 54.8111 35.5254C52.5357 32.9249 49.6714 31.7651 46.2635 32.0236C44.9609 32.1337 43.6954 32.5136 42.5475 33.1392C41.917 33.4703 41.3252 33.8702 40.7829 34.3318L40.7776 34.3328ZM39.9481 52.4728C39.8985 52.4285 39.8541 52.3852 39.8056 52.3409C39.1016 51.6644 38.3924 50.989 37.6948 50.3019C37.6381 50.2391 37.5685 50.1894 37.4907 50.1562C37.4128 50.123 37.3287 50.1072 37.2442 50.1098C36.5349 50.1267 35.831 50.132 35.1334 49.9726C31.6707 49.1758 29.658 45.3447 30.934 41.9749C31.9398 39.3195 34.7271 37.7037 37.4753 38.1987C38.7069 38.4246 39.7898 38.9575 40.6794 39.8863C41.7623 41.024 42.8725 42.1237 43.9723 43.2509C44.2192 43.5042 44.5052 43.6245 44.8514 43.5749C45.2915 43.5084 45.6482 43.2941 45.8076 42.8488C45.9669 42.4087 45.8899 41.9971 45.5659 41.6614C44.4166 40.4794 43.2958 39.2647 42.1032 38.1322C39.7834 35.9339 37.0521 35.2795 34.0284 36.2135C29.9662 37.4726 27.5863 41.7374 28.5151 45.9484C29.3615 49.7911 32.6648 52.4792 36.5244 52.4844H39.7623C39.8119 52.4844 39.8668 52.4792 39.9491 52.4739L39.9481 52.4728Z" fill="#5F52F4"/>
</g>
<defs>
<clipPath id="clip0_78_1611">
<rect width="33.7724" height="33.7724" fill="white" transform="translate(25.8924 25.3293)"/>
</clipPath>
</defs>
</svg>
