<svg width="84" height="85" viewBox="0 0 84 85" fill="none" xmlns="http://www.w3.org/2000/svg">
<circle cx="41.8908" cy="42.4539" r="41.8908" fill="#EAE9FB"/>
<g clip-path="url(#clip0_131_402)">
<path d="M59.1017 42.2129V43.3453L59.069 43.5268C59.0141 44.0218 58.9751 44.5168 58.8991 45.0002C58.6396 46.5686 58.0775 48.0716 57.2442 49.4254C56.0187 51.4599 54.2373 53.1019 52.1098 54.1578C50.8715 54.7797 49.5338 55.1798 48.1573 55.3398C47.8492 55.3778 47.542 55.4116 47.2391 55.4443H35.3713C35.3112 55.4337 35.2563 55.4168 35.1951 55.4116C34.005 55.3396 32.8376 55.0547 31.7482 54.5704C29.3567 53.5045 27.5762 51.7831 26.4111 49.4148C25.8989 48.3657 25.5664 47.238 25.4275 46.0788L25.3282 45.2323V44.1326C25.3388 44.0725 25.3557 44.0113 25.361 43.9511C25.4211 42.901 25.6354 41.873 26.01 40.8894C27.0158 38.2457 28.7751 36.2827 31.2701 35.0078C32.5502 34.3591 33.9536 33.99 35.3871 33.9249C36.0964 33.8922 36.8056 33.9249 37.5032 34.0241C37.5399 34.0284 37.5772 34.0247 37.6123 34.0132C37.6475 34.0017 37.6797 33.9828 37.7069 33.9576C38.7042 32.9166 39.8739 32.0558 41.1643 31.4131C42.4095 30.7868 43.7547 30.3832 45.1389 30.2205C45.4693 30.1825 45.7985 30.1487 46.1225 30.116H47.1336C47.2001 30.1266 47.2708 30.1382 47.332 30.1435C47.8376 30.2036 48.3378 30.2427 48.8381 30.3303C50.3715 30.5941 51.8449 31.1598 53.1588 31.9957C55.1823 33.2575 56.8033 35.0711 57.831 37.223C58.4463 38.4874 58.8421 39.8509 59.0014 41.2472L59.1007 42.215L59.1017 42.2129ZM40.2145 34.8959C40.2367 34.9233 40.2419 34.9402 40.2525 34.9402C40.9448 35.2916 41.6097 35.699 42.2366 36.1602C42.2746 36.1877 42.3738 36.1771 42.4234 36.1497C44.1384 35.0394 46.0075 34.6605 48.0085 35.0172C49.9705 35.375 51.5705 36.3692 52.7905 37.9639C54.1699 39.7665 54.6976 41.8066 54.3187 44.0704C54.0601 45.588 53.4607 46.9558 52.4443 48.0946C50.5868 50.1779 48.2608 51.0412 45.5241 50.6781C43.8419 50.4523 42.3854 49.7104 41.1812 48.4734C39.6361 46.8904 38.0805 45.3126 36.5312 43.7295C36.3222 43.5152 36.0974 43.3506 35.7998 43.3115C35.5506 43.277 35.297 43.3243 35.077 43.4463C34.857 43.5683 34.6825 43.7584 34.5798 43.988C34.3814 44.406 34.4099 44.8841 34.8436 45.3178C36.5692 47.0434 38.2789 48.7858 40.0055 50.5125C40.3021 50.809 40.6208 51.0845 40.9564 51.3314C42.2155 52.2602 43.6392 52.7773 45.178 52.9863C46.3875 53.1456 47.5853 53.1129 48.7726 52.8375C51.0428 52.3203 52.9224 51.1446 54.401 49.3251C55.6113 47.8477 56.3792 46.0583 56.6163 44.1632C56.7687 43.0574 56.7391 41.934 56.5287 40.8377C56.1825 39.0509 55.4406 37.452 54.248 36.0885C51.9726 33.488 49.1082 32.3281 45.7004 32.5867C44.3977 32.6967 43.1323 33.0766 41.9844 33.7022C41.3539 34.0333 40.7621 34.4333 40.2198 34.8948L40.2145 34.8959ZM39.385 53.0359C39.3354 52.9916 39.291 52.9483 39.2425 52.904C38.5385 52.2275 37.8293 51.552 37.1317 50.865C37.075 50.8021 37.0054 50.7524 36.9275 50.7192C36.8497 50.6861 36.7656 50.6702 36.6811 50.6729C35.9718 50.6898 35.2679 50.695 34.5703 50.5357C31.1075 49.7389 29.0949 45.9078 30.3709 42.5379C31.3767 39.8826 34.164 38.2668 36.9122 38.7618C38.1438 38.9876 39.2266 39.5206 40.1163 40.4493C41.1992 41.587 42.3094 42.6868 43.4091 43.8139C43.6561 44.0672 43.9421 44.1875 44.2883 44.1379C44.7284 44.0714 45.0851 43.8572 45.2445 43.4118C45.4038 42.9717 45.3268 42.5601 45.0028 42.2245C43.8535 41.0425 42.7326 39.8277 41.5401 38.6953C39.2203 36.4969 36.489 35.8426 33.4653 36.7766C29.4031 38.0357 27.0232 42.3005 27.9519 46.5115C28.7984 50.3541 32.1017 53.0422 35.9613 53.0475H39.1992C39.2488 53.0475 39.3037 53.0422 39.386 53.0369L39.385 53.0359Z" fill="#7907EC"/>
</g>
<defs>
<clipPath id="clip0_131_402">
<rect width="33.7724" height="33.7724" fill="white" transform="translate(25.3293 25.8924)"/>
</clipPath>
</defs>
</svg>
