<svg width="84" height="84" viewBox="0 0 84 84" fill="none" xmlns="http://www.w3.org/2000/svg">
<circle cx="41.8908" cy="41.8908" r="41.8908" fill="#EAE9FB"/>
<g clip-path="url(#clip0_131_394)">
<path fill-rule="evenodd" clip-rule="evenodd" d="M31.5848 28.3602C29.5086 28.3602 27.9735 30.1772 28.0432 32.1457C28.1084 34.04 28.0235 36.4904 27.4067 38.4893C26.7854 40.4927 25.7398 41.7626 24.0304 41.9263V43.7675C25.7398 43.9297 26.7869 45.1996 27.4052 47.2045C28.0235 49.2034 28.1084 51.6538 28.0417 53.5466C27.9735 55.5166 29.5086 57.3336 31.5848 57.3336H52.8493C54.9254 57.3336 56.4605 55.5166 56.3908 53.5466C56.3257 51.6538 56.4105 49.2034 57.0273 47.2045C57.6471 45.1996 58.6912 43.9312 60.4007 43.7675V41.9263C58.6912 41.7626 57.6471 40.4927 57.0273 38.4893C56.4105 36.4889 56.3257 34.0385 56.3908 32.1457C56.4605 30.1757 54.9239 28.3602 52.8493 28.3602H31.5848ZM48.6864 46.1952C48.6864 48.9079 46.6633 50.5521 43.3066 50.5521H37.5919C37.4284 50.5521 37.2715 50.4871 37.1558 50.3715C37.0401 50.2558 36.9752 50.0989 36.9752 49.9353V35.757C36.9756 35.5937 37.0407 35.4372 37.1563 35.3218C37.272 35.2065 37.4286 35.1417 37.5919 35.1417H43.2748C46.0738 35.1417 47.912 36.6571 47.912 38.9864C47.912 40.62 46.6754 42.0824 45.1009 42.34V42.4249C47.2452 42.6598 48.6879 44.1449 48.6879 46.1952H48.6864ZM42.6853 37.0951H39.4271V41.699H42.1716C44.2932 41.699 45.4631 40.8443 45.4631 39.3167C45.4631 37.8862 44.4568 37.0951 42.6853 37.0951ZM39.4271 43.5251V48.5972H42.8065C45.0145 48.5972 46.1859 47.7107 46.1859 46.0452C46.1859 44.3782 44.9827 43.5251 42.6641 43.5251H39.4271V43.5251Z" fill="#7907EC"/>
</g>
<defs>
<clipPath id="clip0_131_394">
<rect width="36.3703" height="36.3703" fill="white" transform="translate(24.0304 25.3293)"/>
</clipPath>
</defs>
</svg>
