<svg width="84" height="85" viewBox="0 0 84 85" fill="none" xmlns="http://www.w3.org/2000/svg">
<circle cx="41.8908" cy="42.6723" r="41.8908" fill="#EAE9FB"/>
<g clip-path="url(#clip0_131_398)">
<path d="M60.3269 42.2638L43.596 25.5352C43.3669 25.3061 43.0949 25.1242 42.7955 25.0002C42.4962 24.8762 42.1753 24.8123 41.8513 24.8123C41.5272 24.8123 41.2064 24.8762 40.907 25.0002C40.6076 25.1242 40.3356 25.3061 40.1066 25.5352L36.6339 29.0079L41.0406 33.4145C41.5603 33.2371 42.1194 33.2093 42.6541 33.3344C43.1889 33.4595 43.6777 33.7324 44.0647 34.122C44.4518 34.5115 44.7215 35.0021 44.8432 35.5376C44.9648 36.0731 44.9335 36.632 44.7527 37.1506L48.9989 41.3992C49.6271 41.178 50.3119 41.1773 50.9406 41.3973C51.5692 41.6172 52.1042 42.0447 52.4575 42.6093C52.8108 43.174 52.9612 43.842 52.8841 44.5036C52.807 45.1651 52.5069 45.7807 52.0333 46.2489C51.5538 46.7313 50.9216 47.0323 50.2449 47.1005C49.5681 47.1686 48.8886 46.9997 48.3226 46.6225C47.7566 46.2453 47.339 45.6833 47.1413 45.0325C46.9436 44.3816 46.978 43.6824 47.2386 43.0541L43.2798 39.0929V49.518C43.8816 49.8158 44.3631 50.3109 44.644 50.9207C44.925 51.5306 44.9884 52.2182 44.8239 52.8692C44.6593 53.5201 44.2765 54.095 43.7395 54.498C43.2024 54.9009 42.5435 55.1077 41.8725 55.0837C41.2015 55.0597 40.559 54.8065 40.052 54.3663C39.5451 53.926 39.2043 53.3253 39.0866 52.6643C38.9689 52.0033 39.0812 51.3218 39.405 50.7336C39.7287 50.1454 40.2443 49.6859 40.8658 49.4317V38.9109C40.5072 38.7639 40.1813 38.5475 39.9068 38.274C39.6323 38.0006 39.4146 37.6755 39.2663 37.3175C39.1181 36.9595 39.0421 36.5757 39.0429 36.1882C39.0436 35.8007 39.1211 35.4172 39.2707 35.0598L34.9288 30.7155L23.4571 42.1871C23.2279 42.4162 23.0461 42.6882 22.922 42.9875C22.798 43.2869 22.7342 43.6078 22.7342 43.9318C22.7342 44.2559 22.798 44.5767 22.922 44.8761C23.0461 45.1754 23.2279 45.4474 23.4571 45.6765L40.188 62.4074C40.4171 62.6366 40.6891 62.8184 40.9884 62.9425C41.2878 63.0665 41.6086 63.1303 41.9327 63.1303C42.2567 63.1303 42.5776 63.0665 42.877 62.9425C43.1763 62.8184 43.4483 62.6366 43.6774 62.4074L60.3293 45.7555C60.7915 45.2926 61.0512 44.6651 61.0512 44.0108C61.0512 43.3566 60.7915 42.7291 60.3293 42.2661" fill="#7907EC"/>
</g>
<defs>
<clipPath id="clip0_131_398">
<rect width="38.3187" height="38.3187" fill="white" transform="translate(22.7314 24.812)"/>
</clipPath>
</defs>
</svg>
