<svg width="85" height="84" viewBox="0 0 85 84" fill="none" xmlns="http://www.w3.org/2000/svg">
<circle cx="42.6723" cy="41.8908" r="41.8908" fill="#EAE9FB"/>
<g clip-path="url(#clip0_78_1607)">
<path d="M61.1084 41.4822L44.3775 24.7536C44.1485 24.5245 43.8765 24.3426 43.5771 24.2186C43.2778 24.0946 42.9569 24.0307 42.6328 24.0307C42.3088 24.0307 41.9879 24.0946 41.6886 24.2186C41.3892 24.3426 41.1172 24.5245 40.8881 24.7536L37.4155 28.2263L41.8222 32.6329C42.3419 32.4555 42.901 32.4277 43.4357 32.5528C43.9705 32.6779 44.4592 32.9508 44.8463 33.3404C45.2334 33.7299 45.5031 34.2205 45.6248 34.756C45.7464 35.2915 45.7151 35.8504 45.5343 36.369L49.7805 40.6176C50.4087 40.3964 51.0935 40.3957 51.7222 40.6157C52.3508 40.8356 52.8858 41.2631 53.2391 41.8277C53.5923 42.3924 53.7428 43.0604 53.6657 43.722C53.5886 44.3835 53.2885 44.9991 52.8148 45.4673C52.3353 45.9497 51.7032 46.2507 51.0264 46.3189C50.3497 46.387 49.6702 46.2181 49.1042 45.8409C48.5381 45.4637 48.1206 44.9017 47.9229 44.2509C47.7252 43.6 47.7596 42.9008 48.0202 42.2725L44.0614 38.3113V48.7364C44.6632 49.0342 45.1446 49.5293 45.4256 50.1391C45.7066 50.749 45.77 51.4366 45.6054 52.0876C45.4408 52.7385 45.0581 53.3134 44.5211 53.7164C43.984 54.1193 43.3251 54.3261 42.6541 54.3021C41.9831 54.2781 41.3405 54.0249 40.8336 53.5847C40.3267 53.1444 39.9859 52.5437 39.8682 51.8827C39.7504 51.2217 39.8628 50.5402 40.1866 49.952C40.5103 49.3638 41.0259 48.9043 41.6473 48.6501V38.1293C41.2888 37.9823 40.9629 37.7659 40.6884 37.4924C40.4139 37.219 40.1962 36.8939 40.0479 36.5359C39.8997 36.1779 39.8237 35.7941 39.8245 35.4066C39.8252 35.0191 39.9027 34.6356 40.0523 34.2782L35.7103 29.9339L24.2387 41.4055C24.0095 41.6346 23.8277 41.9066 23.7036 42.2059C23.5796 42.5053 23.5157 42.8262 23.5157 43.1502C23.5157 43.4743 23.5796 43.7951 23.7036 44.0945C23.8277 44.3938 24.0095 44.6658 24.2387 44.8949L40.9696 61.6258C41.1987 61.855 41.4706 62.0368 41.77 62.1609C42.0694 62.2849 42.3902 62.3487 42.7143 62.3487C43.0383 62.3487 43.3592 62.2849 43.6585 62.1609C43.9579 62.0368 44.2299 61.855 44.459 61.6258L61.1108 44.9739C61.5731 44.511 61.8328 43.8835 61.8328 43.2292C61.8328 42.575 61.5731 41.9475 61.1108 41.4845" fill="#5F52F4"/>
</g>
<defs>
<clipPath id="clip0_78_1607">
<rect width="38.3187" height="38.3187" fill="white" transform="translate(23.5129 24.0304)"/>
</clipPath>
</defs>
</svg>
