<svg width="84" height="84" viewBox="0 0 84 84" fill="none" xmlns="http://www.w3.org/2000/svg">
<circle cx="41.8908" cy="41.8908" r="41.8908" fill="#EAE9FB"/>
<path d="M27 29V59H57V29H27ZM29.7273 31.7273H54.2727V56.2727H29.7273V31.7273ZM47.7873 42.6364C45.8441 42.6364 44.5882 43.88 44.5882 45.5273C44.5882 47.3136 45.6382 48.1686 47.2173 48.8409L47.7627 49.0768C48.7623 49.5173 49.3568 49.7736 49.3568 50.525C49.3568 51.1591 48.7745 51.6145 47.8677 51.6145C46.7932 51.6145 46.1823 51.0445 45.7159 50.2795L43.9295 51.3023C44.5623 52.5718 45.8836 53.5455 47.9182 53.5455C49.9909 53.5455 51.5455 52.4709 51.5455 50.5018C51.5455 48.6609 50.4955 47.8441 48.6286 47.0545L48.0859 46.82C47.1409 46.4055 46.7386 46.1341 46.7386 45.4864C46.7386 44.9545 47.1395 44.54 47.7886 44.54C48.4227 44.54 48.8223 44.8127 49.1986 45.4864L50.9114 44.3859C50.1859 43.1177 49.1864 42.6364 47.7886 42.6364H47.7873ZM39.81 42.7673V50.2168C39.81 51.305 39.3436 51.5873 38.6305 51.5873C37.8805 51.5873 37.5559 51.0705 37.2191 50.4609L35.4327 51.5382C35.9509 52.6386 36.9723 53.5455 38.7218 53.5455C40.6636 53.5455 42 52.5091 42 50.24V42.7673H39.8114H39.81Z" fill="#7907EC"/>
</svg>
