<svg width="84" height="84" viewBox="0 0 84 84" fill="none" xmlns="http://www.w3.org/2000/svg">
<circle cx="41.8908" cy="41.8908" r="41.8908" fill="#EAE9FB"/>
<path d="M53.7857 27.1428H30.2143C28.4397 27.1428 27 28.5826 27 30.3571V53.9285C27 55.7031 28.4397 57.1428 30.2143 57.1428H53.7857C55.5603 57.1428 57 55.7031 57 53.9285V30.3571C57 28.5826 55.5603 27.1428 53.7857 27.1428ZM43.3259 50.5401C43.3259 53.4598 41.6116 54.7924 39.1138 54.7924C36.8571 54.7924 35.5513 53.6272 34.8817 52.2142L37.1786 50.8281C37.6205 51.6116 38.0223 52.2745 38.9933 52.2745C39.9174 52.2745 40.5067 51.9129 40.5067 50.5V40.9174H43.3259V50.5401V50.5401ZM49.9955 54.7924C47.3772 54.7924 45.683 53.5468 44.8594 51.9129L47.1562 50.587C47.7589 51.5714 48.5491 52.3013 49.9353 52.3013C51.1004 52.3013 51.8504 51.7187 51.8504 50.9084C51.8504 49.9442 51.0871 49.6026 49.7946 49.0334L49.0915 48.7321C47.0558 47.8683 45.7098 46.7767 45.7098 44.4799C45.7098 42.3638 47.3237 40.7567 49.8348 40.7567C51.6295 40.7567 52.9152 41.3794 53.8393 43.0134L51.6429 44.4196C51.1607 43.5558 50.6384 43.2143 49.8281 43.2143C49.0045 43.2143 48.4821 43.7366 48.4821 44.4196C48.4821 45.2634 49.0045 45.6049 50.2165 46.1339L50.9196 46.4352C53.317 47.4598 54.6629 48.5111 54.6629 50.8683C54.6629 53.3995 52.6674 54.7924 49.9955 54.7924V54.7924Z" fill="#7907EC"/>
</svg>
