<svg width="84" height="84" viewBox="0 0 84 84" fill="none" xmlns="http://www.w3.org/2000/svg">
<circle cx="41.8908" cy="41.8908" r="41.8908" fill="#EAE9FB"/>
<g clip-path="url(#clip0_78_1587)">
<path d="M60.4007 41.7442C60.4007 39.3347 57.3835 37.0509 52.7569 35.6355C53.8252 30.921 53.3509 27.1688 51.2596 25.9671C50.7529 25.6833 50.1794 25.5404 49.5987 25.5534V27.2052C49.9397 27.2052 50.214 27.2734 50.4443 27.3992C51.4521 27.9781 51.89 30.1785 51.5491 33.0108C51.4672 33.7079 51.3339 34.4414 51.1702 35.19C49.6209 34.8166 48.0484 34.5468 46.4633 34.3823C45.519 33.0794 44.4887 31.8411 43.3794 30.6755C45.7965 28.4297 48.0651 27.1991 49.6078 27.1991V25.5458C47.568 25.5458 44.8994 26.9991 42.2004 29.5193C39.5029 27.0158 36.8327 25.5761 34.7945 25.5761V27.2279C36.3296 27.2279 38.6058 28.4524 41.0229 30.6831C39.9848 31.7742 38.9468 33.0108 37.9602 34.3823C36.3718 34.545 34.7965 34.8174 33.2457 35.1976C33.0818 34.488 32.9529 33.7709 32.8593 33.0487C32.5107 30.2148 32.9411 28.0144 33.9428 27.4295C34.1641 27.2961 34.4535 27.2355 34.7945 27.2355V25.5837C34.1732 25.5837 33.6079 25.7171 33.1199 25.9974C31.0362 27.1991 30.5695 30.9422 31.6439 35.6431C27.0325 37.0676 24.0304 39.3423 24.0304 41.7442C24.0304 44.1538 27.0476 46.4375 31.6742 47.8514C30.6058 52.5674 31.0802 56.3196 33.1715 57.5198C33.6534 57.8017 34.2171 57.9351 34.8384 57.9351C36.8782 57.9351 39.5469 56.4818 42.2458 53.9616C44.9433 56.4666 47.612 57.9048 49.6517 57.9048C50.2369 57.9171 50.8147 57.7738 51.3263 57.4895C53.41 56.2893 53.8768 52.5462 52.8023 47.8453C57.3986 46.4299 60.4007 44.1462 60.4007 41.7442ZM50.7474 36.7994C50.4594 37.7903 50.1257 38.7672 49.7472 39.7272C49.1277 38.5221 48.4474 37.3491 47.709 36.2129C48.7622 36.369 49.7775 36.5615 50.7489 36.7994H50.7474ZM47.3528 44.6948C46.7978 45.6638 46.2017 46.6088 45.5662 47.5271C43.3419 47.7231 41.1048 47.7257 38.8801 47.5347C37.604 45.7119 36.488 43.7821 35.5446 41.767C36.4866 39.747 37.5978 37.8105 38.8664 35.978C41.0902 35.7816 43.3267 35.7785 45.551 35.9689C46.1663 36.8509 46.7679 37.7935 47.3453 38.7876C47.909 39.7575 48.4212 40.7425 48.888 41.7366C48.416 42.7428 47.9039 43.7297 47.3528 44.6948ZM49.7472 43.7309C50.1473 44.7236 50.4898 45.7177 50.7701 46.6815C49.8003 46.9194 48.7758 47.1194 47.7165 47.274C48.4519 46.1275 49.1296 44.945 49.7472 43.7309ZM42.2307 51.6415C41.5412 50.9292 40.8517 50.1367 40.1697 49.2683C40.8365 49.2986 41.5184 49.3214 42.208 49.3214C42.9051 49.3214 43.5946 49.3062 44.2689 49.2683C43.6022 50.1367 42.9126 50.9292 42.2307 51.6415ZM36.7145 47.274C35.6927 47.126 34.6783 46.9308 33.6746 46.6891C33.9489 45.7328 34.2898 44.7463 34.6748 43.7613C34.9794 44.3523 35.2991 44.9463 35.6477 45.5404C35.9962 46.1329 36.3508 46.7118 36.7145 47.274ZM42.1928 31.847C42.8823 32.5592 43.5718 33.3518 44.2538 34.2201C43.587 34.1898 42.9051 34.1671 42.2155 34.1671C41.5184 34.1671 40.8289 34.1822 40.1546 34.2201C40.8213 33.3518 41.5109 32.5592 42.1928 31.847ZM36.707 36.2144C35.9718 37.3585 35.294 38.5384 34.6763 39.7499C34.2871 38.7838 33.9458 37.7991 33.6534 36.7994C34.6232 36.569 35.6477 36.369 36.707 36.2144ZM29.9982 45.4949C27.3734 44.3765 25.6762 42.9081 25.6762 41.7442C25.6762 40.5804 27.3734 39.1043 29.9982 37.9935C30.6346 37.7192 31.3317 37.4737 32.0516 37.2449C32.4744 38.6967 33.0305 40.2091 33.7185 41.7594C33.069 43.2175 32.5196 44.7182 32.0743 46.2511C31.3703 46.0331 30.6774 45.7808 29.9982 45.4949ZM33.9868 56.0877C32.979 55.5119 32.541 53.3085 32.882 50.4776C32.9638 49.7805 33.0972 49.0456 33.2609 48.2969C34.7127 48.6531 36.2993 48.9274 37.9678 49.1062C38.9122 50.409 39.9424 51.6473 41.0517 52.8129C38.6346 55.0588 36.366 56.2893 34.8233 56.2893C34.5322 56.2925 34.2449 56.2238 33.9868 56.0893V56.0877ZM51.5718 50.4397C51.9203 53.2721 51.49 55.474 50.4883 56.059C50.267 56.1923 49.9776 56.2514 49.6366 56.2514C48.1015 56.2514 45.8253 55.0285 43.4082 52.7962C44.5128 51.6355 45.5361 50.4 46.4709 49.0986C48.0593 48.9359 49.6345 48.6635 51.1854 48.2833C51.3566 49.0319 51.4884 49.7502 51.5718 50.4397ZM54.4253 45.4949C53.7889 45.7692 53.0918 46.0147 52.3719 46.2435C51.9188 44.7028 51.3619 43.1945 50.705 41.7291C51.3869 40.1879 51.934 38.6831 52.3492 37.2373C53.0554 37.456 53.7508 37.7084 54.4329 37.9935C57.0576 39.1119 58.7549 40.5804 58.7549 41.7442C58.7473 42.9081 57.0501 44.3841 54.4253 45.4949Z" fill="#5F52F4"/>
<path d="M42.208 45.1327C43.1066 45.1327 43.9685 44.7757 44.604 44.1403C45.2395 43.5048 45.5965 42.6429 45.5965 41.7442C45.5965 40.8455 45.2395 39.9837 44.604 39.3482C43.9685 38.7127 43.1066 38.3557 42.208 38.3557C41.3093 38.3557 40.4474 38.7127 39.8119 39.3482C39.1765 39.9837 38.8195 40.8455 38.8195 41.7442C38.8195 42.6429 39.1765 43.5048 39.8119 44.1403C40.4474 44.7757 41.3093 45.1327 42.208 45.1327Z" fill="#5F52F4"/>
</g>
<defs>
<clipPath id="clip0_78_1587">
<rect width="36.3703" height="36.3703" fill="white" transform="translate(24.0304 24.0304)"/>
</clipPath>
</defs>
</svg>
