<svg width="84" height="84" viewBox="0 0 84 84" fill="none" xmlns="http://www.w3.org/2000/svg">
<circle cx="41.8908" cy="41.8908" r="41.8908" fill="#EAE9FB"/>
<g clip-path="url(#clip0_131_378)">
<path d="M60.4006 41.7443C60.4006 39.3347 57.3834 37.051 52.7568 35.6356C53.8252 30.9211 53.3508 27.1689 51.2596 25.9671C50.7528 25.6833 50.1793 25.5405 49.5986 25.5534V27.2052C49.9396 27.2052 50.2139 27.2734 50.4443 27.3992C51.452 27.9781 51.89 30.1785 51.549 33.0108C51.4672 33.7079 51.3338 34.4414 51.1701 35.19C49.6208 34.8167 48.0484 34.5468 46.4632 34.3823C45.5189 33.0795 44.4886 31.8411 43.3793 30.6756C45.7964 28.4297 48.065 27.1992 49.6077 27.1992V25.5458C47.568 25.5458 44.8993 26.9991 42.2003 29.5193C39.5029 27.0158 36.8327 25.5761 34.7944 25.5761V27.228C36.3296 27.228 38.6057 28.4524 41.0228 30.6831C39.9848 31.7742 38.9467 33.0108 37.9602 34.3823C36.3717 34.545 34.7965 34.8174 33.2457 35.1976C33.0818 34.4881 32.9528 33.7709 32.8592 33.0487C32.5107 30.2149 32.9411 28.0145 33.9428 27.4295C34.164 27.2962 34.4535 27.2355 34.7944 27.2355V25.5837C34.1731 25.5837 33.6078 25.7171 33.1199 25.9974C31.0362 27.1992 30.5694 30.9423 31.6438 35.6431C27.0324 37.0676 24.0303 39.3423 24.0303 41.7443C24.0303 44.1538 27.0476 46.4375 31.6742 47.8514C30.6058 52.5674 31.0801 56.3196 33.1714 57.5199C33.6533 57.8017 34.217 57.9351 34.8384 57.9351C36.8781 57.9351 39.5468 56.4818 42.2458 53.9616C44.9432 56.4666 47.6119 57.9048 49.6517 57.9048C50.2368 57.9171 50.8147 57.7738 51.3262 57.4896C53.4099 56.2893 53.8767 52.5462 52.8023 47.8454C57.3986 46.43 60.4006 44.1462 60.4006 41.7443ZM50.7473 36.7994C50.4594 37.7903 50.1256 38.7673 49.7472 39.7272C49.1276 38.5221 48.4473 37.3491 47.7089 36.2129C48.7621 36.369 49.7775 36.5615 50.7489 36.7994H50.7473ZM47.3528 44.6948C46.7977 45.6639 46.2016 46.6088 45.5661 47.5271C43.3418 47.7232 41.1047 47.7257 38.88 47.5347C37.6039 45.7119 36.488 43.7821 35.5446 41.767C36.4865 39.7471 37.5978 37.8105 38.8664 35.978C41.0901 35.7816 43.3267 35.7786 45.5509 35.969C46.1662 36.8509 46.7678 37.7935 47.3452 38.7877C47.9089 39.7575 48.4212 40.7426 48.8879 41.7367C48.416 42.7429 47.9039 43.7297 47.3528 44.6948V44.6948ZM49.7472 43.731C50.1472 44.7236 50.4897 45.7177 50.7701 46.6815C49.8002 46.9194 48.7758 47.1195 47.7165 47.2741C48.4518 46.1275 49.1296 44.945 49.7472 43.731V43.731ZM42.2306 51.6415C41.5411 50.9293 40.8516 50.1367 40.1696 49.2684C40.8364 49.2987 41.5184 49.3214 42.2079 49.3214C42.905 49.3214 43.5945 49.3062 44.2689 49.2684C43.6021 50.1367 42.9126 50.9293 42.2306 51.6415ZM36.7145 47.2741C35.6927 47.126 34.6783 46.9308 33.6745 46.6891C33.9488 45.7329 34.2898 44.7463 34.6747 43.7613C34.9793 44.3523 35.2991 44.9464 35.6476 45.5404C35.9962 46.1329 36.3508 46.7118 36.7145 47.2741ZM42.1927 31.847C42.8823 32.5592 43.5718 33.3518 44.2537 34.2201C43.5869 34.1898 42.905 34.1671 42.2155 34.1671C41.5184 34.1671 40.8289 34.1823 40.1545 34.2201C40.8213 33.3518 41.5108 32.5592 42.1927 31.847ZM36.7069 36.2145C35.9717 37.3585 35.294 38.5385 34.6762 39.7499C34.2871 38.7838 33.9457 37.7991 33.6533 36.7994C34.6232 36.5691 35.6476 36.369 36.7069 36.2145ZM29.9981 45.4949C27.3734 44.3766 25.6761 42.9081 25.6761 41.7443C25.6761 40.5804 27.3734 39.1044 29.9981 37.9936C30.6346 37.7193 31.3317 37.4738 32.0515 37.2449C32.4743 38.6967 33.0305 40.2091 33.7185 41.7594C33.0689 43.2175 32.5195 44.7183 32.0742 46.2511C31.3702 46.0332 30.6774 45.7808 29.9981 45.4949V45.4949ZM33.9867 56.0878C32.9789 55.5119 32.541 53.3085 32.882 50.4777C32.9638 49.7806 33.0971 49.0456 33.2608 48.297C34.7126 48.6531 36.2992 48.9274 37.9677 49.1062C38.9121 50.409 39.9424 51.6473 41.0516 52.8129C38.6345 55.0588 36.3659 56.2893 34.8232 56.2893C34.5322 56.2925 34.2448 56.2238 33.9867 56.0893V56.0878ZM51.5717 50.4398C51.9203 53.2721 51.4899 55.474 50.4882 56.059C50.2669 56.1923 49.9775 56.2514 49.6365 56.2514C48.1014 56.2514 45.8252 55.0285 43.4081 52.7963C44.5128 51.6356 45.5361 50.4001 46.4708 49.0986C48.0592 48.9359 49.6345 48.6635 51.1853 48.2833C51.3565 49.0319 51.4884 49.7503 51.5717 50.4398V50.4398ZM54.4253 45.4949C53.7888 45.7692 53.0917 46.0147 52.3719 46.2436C51.9187 44.7028 51.3618 43.1946 50.7049 41.7291C51.3868 40.1879 51.9339 38.6831 52.3491 37.2374C53.0554 37.4561 53.7507 37.7084 54.4329 37.9936C57.0576 39.112 58.7549 40.5804 58.7549 41.7443C58.7473 42.9081 57.05 44.3841 54.4253 45.4949V45.4949Z" fill="#7907EC"/>
<path d="M42.2079 45.1328C43.1066 45.1328 43.9685 44.7758 44.6039 44.1403C45.2394 43.5048 45.5964 42.643 45.5964 41.7443C45.5964 40.8456 45.2394 39.9837 44.6039 39.3482C43.9685 38.7128 43.1066 38.3558 42.2079 38.3558C41.3092 38.3558 40.4473 38.7128 39.8119 39.3482C39.1764 39.9837 38.8194 40.8456 38.8194 41.7443C38.8194 42.643 39.1764 43.5048 39.8119 44.1403C40.4473 44.7758 41.3092 45.1328 42.2079 45.1328V45.1328Z" fill="#7907EC"/>
</g>
<defs>
<clipPath id="clip0_131_378">
<rect width="36.3703" height="36.3703" fill="white" transform="translate(24.0303 24.0304)"/>
</clipPath>
</defs>
</svg>
