<svg width="85" height="84" viewBox="0 0 85 84" fill="none" xmlns="http://www.w3.org/2000/svg">
<circle cx="42.4539" cy="41.8908" r="41.8908" fill="#EAE9FB"/>
<g clip-path="url(#clip0_78_1598)">
<path d="M43.695 50.4998C43.678 50.5339 43.6609 50.5612 43.695 50.4998V50.4998ZM57.8522 45.5557C56.7088 45.5557 55.5813 45.8172 54.5561 46.3229C54.2208 45.6467 53.8742 45.0556 53.8173 44.6124C53.7491 44.0952 53.6753 43.7884 53.7548 43.1746C53.8344 42.5609 54.1924 41.6914 54.1867 41.6289C54.181 41.5664 54.1072 41.2538 53.3741 41.2481C52.641 41.2424 52.0102 41.3902 51.9363 41.5834C51.8066 41.9364 51.7059 42.2995 51.6351 42.6688C51.5044 43.3337 50.1701 45.7092 49.4143 46.948C49.1642 46.465 48.9539 46.0388 48.9085 45.6978C48.8403 45.1807 48.7664 44.8738 48.846 44.26C48.9255 43.6463 49.2835 42.7768 49.2779 42.7143C49.2722 42.6518 49.1983 42.3392 48.4664 42.3336C47.7344 42.3279 47.1025 42.4756 47.0286 42.6688C46.9547 42.8621 46.8752 43.3167 46.7274 43.7543C46.5796 44.1919 44.8009 48.1471 44.3361 49.1757C44.0974 49.6985 43.8928 50.1191 43.745 50.4032C43.7223 50.4487 43.7053 50.4771 43.6939 50.4998C43.7109 50.4714 43.7223 50.443 43.7223 50.4544C43.5973 50.6987 43.5234 50.8351 43.5234 50.8351V50.8408C43.4268 51.0226 43.3188 51.1875 43.2677 51.1875C43.2336 51.1875 43.1597 50.7101 43.2847 50.0566C43.5518 48.6813 44.1826 46.5446 44.1769 46.4707C44.1713 46.4309 44.2963 46.0615 43.7621 45.8626C43.2449 45.6751 43.0574 45.9876 43.0119 45.9876C42.9665 45.9876 42.9324 46.1013 42.9324 46.1013C42.9324 46.1013 43.5064 43.6918 41.8299 43.6918C40.7843 43.6918 39.3295 44.8397 38.6146 45.8797C38.1656 46.124 37.1938 46.6525 36.1709 47.2151L34.9946 47.863C34.9662 47.8346 34.9434 47.8061 34.915 47.7777C32.8806 45.6069 29.1253 44.0725 29.2844 41.1572C29.3413 40.0945 29.7107 37.3042 36.5062 33.9172C42.0754 31.144 46.5274 31.9055 47.2945 33.599C48.397 36.0142 44.9134 40.5094 39.1306 41.1572C36.9256 41.4016 35.7674 40.5491 35.4776 40.2309C35.1764 39.8956 35.131 39.8786 35.0173 39.9411C34.8298 40.0434 34.9491 40.3389 35.0173 40.515C35.1878 40.964 35.8981 41.7596 37.1086 42.1574C38.1713 42.504 40.7559 42.6973 43.8803 41.4868C47.3912 40.1343 50.1246 36.3666 49.3222 33.2126C48.5061 30.0074 43.1915 28.9561 38.1667 30.7405C35.1719 31.8032 31.9338 33.474 29.605 35.6505C26.8374 38.2419 26.3953 40.498 26.5771 41.4413C27.225 44.7886 31.8383 46.9708 33.6841 48.5847L33.4284 48.7268C32.5021 49.1871 28.9855 51.0283 28.1047 52.9719C27.1102 55.1768 28.2695 56.7567 29.0298 56.9726C31.4053 57.6318 33.8364 56.4441 35.1435 54.4949C36.4505 52.5457 36.2914 49.9997 35.689 48.8404C35.6833 48.8234 35.672 48.812 35.6663 48.795C36.3482 48.3911 37.0359 47.997 37.7292 47.6129C37.5019 48.2267 37.337 48.9655 37.2518 50.0338C37.1495 51.2841 37.6667 52.9037 38.3372 53.5402C38.6327 53.8186 38.9896 53.8243 39.2124 53.8243C39.9966 53.8243 40.349 53.1765 40.7411 52.4036C41.2241 51.4602 41.6503 50.3634 41.6503 50.3634C41.6503 50.3634 41.1161 53.3299 42.5766 53.3299C43.1108 53.3299 43.645 52.6423 43.8837 52.2899V52.2956C43.8837 52.2956 43.8951 52.2729 43.9235 52.2274C43.9803 52.1422 44.0087 52.091 44.0087 52.091V52.074C44.2247 51.7046 44.6963 50.8578 45.4067 49.4599C46.3273 47.6527 47.207 45.3966 47.207 45.3966C47.2923 45.8922 47.4105 46.382 47.5594 46.8628C47.7185 47.4027 48.0538 47.9937 48.3209 48.5677C48.1049 48.8632 47.9742 49.0336 47.9742 49.0336C47.9742 49.0382 47.9765 49.0416 47.9799 49.045C47.8094 49.2723 47.6162 49.5167 47.4173 49.7554C46.691 50.6192 45.8261 51.608 45.7124 51.8921C45.5761 52.2274 45.6102 52.4775 45.8716 52.6707C46.0648 52.8184 46.4058 52.8412 46.7638 52.8127C47.4173 52.7673 47.8776 52.6082 48.0992 52.5059C48.508 52.3594 48.8944 52.1567 49.2472 51.9035C49.9575 51.3807 50.3894 50.6305 50.3497 49.6417C50.3269 49.0962 50.1508 48.5506 49.9348 48.0391C49.9973 47.9482 50.0655 47.8516 50.128 47.755C50.8676 46.6516 51.5339 45.5008 52.1227 44.3101C52.2079 44.8056 52.325 45.2955 52.475 45.7762C52.6114 46.2365 52.8785 46.7423 53.1229 47.2367C52.0659 48.0948 51.4123 49.0893 51.1862 49.7429C50.7656 50.9533 51.0952 51.4989 51.7147 51.6239C51.9931 51.6807 52.3909 51.55 52.6864 51.425C53.1252 51.2784 53.5389 51.0658 53.9128 50.7942C54.6232 50.2714 55.3108 49.5383 55.2642 48.5438C55.2471 48.0948 55.1221 47.6459 54.9573 47.214C55.8495 46.8389 57.0088 46.6343 58.4864 46.8048C61.6506 47.1742 62.27 49.1519 62.1507 49.9759C62.0313 50.7999 61.3664 51.2602 61.1448 51.3966C60.9232 51.533 60.855 51.5841 60.872 51.6864C60.9004 51.8342 61.0027 51.8285 61.1903 51.7944C61.4517 51.7489 62.8497 51.1238 62.9122 49.5951C63.0031 47.6629 61.1448 45.5376 57.8544 45.5546L57.8522 45.5557ZM33.4625 53.7788C32.4168 54.9211 30.9518 55.353 30.321 54.9893C29.6447 54.596 29.9118 52.915 31.2007 51.6978C31.9849 50.959 32.9965 50.2771 33.6671 49.8565C33.8205 49.7656 34.0421 49.6292 34.3149 49.4644C34.3371 49.4502 34.3598 49.4369 34.3831 49.4246C34.4342 49.3905 34.4911 49.3621 34.5479 49.328C35.0184 51.0556 34.565 52.5786 33.4625 53.7777V53.7788ZM41.098 48.5847C40.7343 49.4769 39.9682 51.7501 39.5011 51.6307C39.1033 51.5284 38.8589 49.7952 39.4215 48.0903C39.7057 47.2322 40.308 46.2093 40.6661 45.8115C41.24 45.1693 41.8708 44.9647 42.0186 45.2204C42.2175 45.5557 41.3253 48.0278 41.098 48.5847ZM47.4059 51.5966C47.2525 51.6762 47.1104 51.7273 47.0422 51.6875C46.9911 51.6591 47.1047 51.5512 47.1047 51.5512C47.1047 51.5512 47.8947 50.7044 48.2072 50.318C48.3891 50.0907 48.5993 49.8236 48.8266 49.5281C48.8266 49.5565 48.8323 49.5849 48.8323 49.619C48.8255 50.6362 47.8481 51.3238 47.4048 51.5966H47.4059ZM52.2705 50.4885C52.1568 50.4089 52.1738 50.1418 52.5546 49.3121C52.7024 48.9882 53.0433 48.4426 53.6343 47.9198C53.7014 48.1176 53.7378 48.3244 53.7423 48.5336C53.7366 49.8122 52.8217 50.2896 52.2705 50.4885Z" fill="#5F52F4"/>
</g>
<defs>
<clipPath id="clip0_78_1598">
<rect width="36.3703" height="36.3703" fill="white" transform="translate(26.5419 25.3293)"/>
</clipPath>
</defs>
</svg>
