<svg width="84" height="85" viewBox="0 0 84 85" fill="none" xmlns="http://www.w3.org/2000/svg">
<circle cx="41.8908" cy="42.4539" r="41.8908" fill="#EAE9FB"/>
<g clip-path="url(#clip0_131_389)">
<path d="M43.1319 51.063C43.1148 51.097 43.0978 51.1243 43.1319 51.063V51.063ZM57.289 46.1189C56.1456 46.1189 55.0181 46.3803 53.9929 46.8861C53.6576 46.2098 53.311 45.6188 53.2542 45.1755C53.186 44.6584 53.1121 44.3515 53.1917 43.7377C53.2712 43.124 53.6292 42.2545 53.6235 42.192C53.6179 42.1295 53.544 41.8169 52.8109 41.8113C52.0778 41.8056 51.447 41.9533 51.3731 42.1465C51.2434 42.4996 51.1427 42.8626 51.0719 43.232C50.9412 43.8969 49.6069 46.2723 48.8511 47.5112C48.601 47.0281 48.3908 46.6019 48.3453 46.2609C48.2771 45.7438 48.2032 45.4369 48.2828 44.8232C48.3624 44.2094 48.7204 43.3399 48.7147 43.2774C48.709 43.2149 48.6351 42.9024 47.9032 42.8967C47.1712 42.891 46.5393 43.0388 46.4654 43.232C46.3915 43.4252 46.312 43.8798 46.1642 44.3174C46.0165 44.755 44.2377 48.7102 43.7729 49.7388C43.5342 50.2617 43.3296 50.6822 43.1819 50.9663C43.1591 51.0118 43.1421 51.0402 43.1307 51.063C43.1478 51.0345 43.1591 51.0061 43.1591 51.0175C43.0341 51.2619 42.9602 51.3982 42.9602 51.3982V51.4039C42.8636 51.5858 42.7557 51.7506 42.7045 51.7506C42.6704 51.7506 42.5965 51.2732 42.7216 50.6197C42.9886 49.2444 43.6194 47.1077 43.6138 47.0338C43.6081 46.994 43.7331 46.6246 43.1989 46.4257C42.6818 46.2382 42.4942 46.5508 42.4488 46.5508C42.4033 46.5508 42.3692 46.6644 42.3692 46.6644C42.3692 46.6644 42.9432 44.2549 41.2667 44.2549C40.2211 44.2549 38.7663 45.4028 38.0514 46.4428C37.6024 46.6871 36.6307 47.2157 35.6078 47.7783L34.4314 48.4261C34.403 48.3977 34.3803 48.3693 34.3518 48.3409C32.3174 46.17 28.5621 44.6356 28.7213 41.7203C28.7781 40.6576 29.1475 37.8674 35.943 34.4804C41.5122 31.7071 45.9642 32.4686 46.7314 34.1621C47.8339 36.5773 44.3503 41.0725 38.5674 41.7203C36.3624 41.9647 35.2043 41.1123 34.9144 40.794C34.6133 40.4587 34.5678 40.4417 34.4541 40.5042C34.2666 40.6065 34.3859 40.902 34.4541 41.0782C34.6246 41.5271 35.335 42.3227 36.5454 42.7205C37.6081 43.0672 40.1927 43.2604 43.3171 42.0499C46.828 40.6974 49.5614 36.9297 48.759 33.7757C47.943 30.5706 42.6284 29.5192 37.6036 31.3037C34.6087 32.3663 31.3706 34.0371 29.0418 36.2136C26.2742 38.805 25.8321 41.0611 26.014 42.0045C26.6618 45.3517 31.2751 47.5339 33.1209 49.1478L32.8652 49.2899C31.9389 49.7502 28.4224 51.5915 27.5415 53.535C26.547 55.7399 27.7063 57.3198 28.4667 57.5357C30.8421 58.1949 33.2732 57.0072 34.5803 55.058C35.8874 53.1088 35.7282 50.5629 35.1258 49.4036C35.1202 49.3865 35.1088 49.3751 35.1031 49.3581C35.785 48.9542 36.4727 48.5601 37.166 48.1761C36.9387 48.7898 36.7739 49.5286 36.6886 50.597C36.5863 51.8472 37.1035 53.4668 37.7741 54.1033C38.0696 54.3817 38.4265 54.3874 38.6492 54.3874C39.4335 54.3874 39.7858 53.7396 40.1779 52.9667C40.661 52.0234 41.0872 50.9266 41.0872 50.9266C41.0872 50.9266 40.553 53.893 42.0135 53.893C42.5477 53.893 43.0818 53.2054 43.3205 52.8531V52.8587C43.3205 52.8587 43.3319 52.836 43.3603 52.7905C43.4171 52.7053 43.4456 52.6542 43.4456 52.6542V52.6371C43.6615 52.2677 44.1332 51.421 44.8435 50.023C45.7642 48.2158 46.6439 45.9597 46.6439 45.9597C46.7291 46.4553 46.8473 46.9452 46.9962 47.4259C47.1553 47.9658 47.4906 48.5568 47.7577 49.1308C47.5418 49.4263 47.411 49.5968 47.411 49.5968C47.411 49.6013 47.4133 49.6047 47.4167 49.6081C47.2462 49.8355 47.053 50.0798 46.8541 50.3185C46.1279 51.1823 45.2629 52.1711 45.1493 52.4553C45.0129 52.7905 45.047 53.0406 45.3084 53.2338C45.5016 53.3816 45.8426 53.4043 46.2006 53.3759C46.8541 53.3304 47.3144 53.1713 47.5361 53.069C47.9449 52.9225 48.3312 52.7198 48.684 52.4666C49.3944 51.9438 49.8263 51.1937 49.7865 50.2048C49.7638 49.6593 49.5876 49.1137 49.3716 48.6023C49.4341 48.5113 49.5023 48.4147 49.5649 48.3181C50.3044 47.2147 50.9707 46.0639 51.5595 44.8732C51.6448 45.3687 51.7618 45.8586 51.9119 46.3394C52.0483 46.7997 52.3154 47.3054 52.5597 47.7999C51.5027 48.658 50.8492 49.6525 50.623 50.306C50.2025 51.5164 50.5321 52.062 51.1515 52.187C51.43 52.2438 51.8278 52.1131 52.1233 51.9881C52.562 51.8415 52.9757 51.629 53.3496 51.3573C54.06 50.8345 54.7476 50.1014 54.701 49.1069C54.684 48.658 54.5589 48.209 54.3941 47.7771C55.2864 47.4021 56.4457 47.1975 57.9232 47.368C61.0874 47.7373 61.7068 49.715 61.5875 50.539C61.4682 51.363 60.8033 51.8233 60.5816 51.9597C60.36 52.0961 60.2918 52.1472 60.3089 52.2495C60.3373 52.3973 60.4396 52.3916 60.6271 52.3575C60.8885 52.312 62.2865 51.6869 62.349 50.1582C62.4399 48.2261 60.5816 46.1007 57.2913 46.1177L57.289 46.1189ZM32.8993 54.342C31.8537 55.4842 30.3886 55.9161 29.7578 55.5524C29.0816 55.1592 29.3487 53.4782 30.6375 52.2609C31.4218 51.5221 32.4333 50.8402 33.1039 50.4197C33.2573 50.3287 33.479 50.1923 33.7517 50.0275C33.7739 50.0133 33.7967 50.0001 33.8199 49.9878C33.8711 49.9537 33.9279 49.9252 33.9847 49.8911C34.4553 51.6187 34.0018 53.1417 32.8993 54.3408V54.342ZM40.5348 49.1478C40.1711 50.04 39.405 52.3132 38.9379 52.1938C38.5401 52.0915 38.2957 50.3583 38.8583 48.6534C39.1425 47.7953 39.7449 46.7724 40.1029 46.3746C40.6769 45.7324 41.3077 45.5278 41.4554 45.7836C41.6543 46.1189 40.7621 48.5909 40.5348 49.1478ZM46.8428 52.1597C46.6893 52.2393 46.5473 52.2904 46.4791 52.2507C46.4279 52.2223 46.5416 52.1143 46.5416 52.1143C46.5416 52.1143 47.3315 51.2675 47.644 50.8811C47.8259 50.6538 48.0362 50.3867 48.2635 50.0912C48.2635 50.1196 48.2692 50.148 48.2692 50.1821C48.2623 51.1993 47.2849 51.887 46.8416 52.1597H46.8428ZM51.7073 51.0516C51.5936 50.972 51.6107 50.7049 51.9914 49.8752C52.1392 49.5513 52.4802 49.0058 53.0712 48.4829C53.1382 48.6807 53.1746 48.8876 53.1791 49.0967C53.1735 50.3753 52.2585 50.8527 51.7073 51.0516V51.0516Z" fill="#7907EC"/>
</g>
<defs>
<clipPath id="clip0_131_389">
<rect width="36.3703" height="36.3703" fill="white" transform="translate(25.9787 25.8925)"/>
</clipPath>
</defs>
</svg>
