<svg width="399" height="328" viewBox="0 0 399 328" fill="none" xmlns="http://www.w3.org/2000/svg">
<g clip-path="url(#clip0_78_1622)">
<path d="M8.39233e-05 317.772C-0.121826 330.543 80.3311 331.713 81.8636 317.773C81.9855 305.003 1.53255 303.833 8.39233e-05 317.772Z" fill="#4E4C6D"/>
<path d="M62.9459 273.438L68.9252 276.7L65.1201 289.206L59.1414 289.749L55.8798 282.681L62.9459 273.438Z" fill="#4E4C6D"/>
<path d="M44.4651 298.449V304.429L35.2247 303.886L35.3534 298.96L44.4651 298.449Z" fill="#4E4C6D"/>
<path d="M65.1201 201.669L61.859 242.448L51.5313 302.254L35.2248 300.079L40.6601 252.778L38.4858 209.282L65.1201 201.669Z" fill="#2F2E41"/>
<path d="M21.6357 171.223L60.7718 171.766L65.1202 201.67L38.486 214.175L31.9633 238.098L65.1202 273.438L52.0749 289.75C52.0749 289.75 33.5939 264.739 20.005 250.603C6.41608 236.467 12.9388 193.514 12.9388 193.514L21.6357 171.223Z" fill="#2F2E41"/>
<path d="M45.0086 94.0168C38.4042 94.0168 33.0503 88.6615 33.0503 82.0554C33.0503 75.4493 38.4042 70.0939 45.0086 70.0939C51.6129 70.0939 56.9668 75.4493 56.9668 82.0554C56.9668 88.6615 51.6129 94.0168 45.0086 94.0168Z" fill="#C98989"/>
<path d="M49.3571 90.2109V102.172L41.2037 115.221C41.2037 115.221 28.7019 105.978 31.4197 103.803C34.1375 101.629 34.681 84.7739 34.681 84.7739L49.3571 90.2109Z" fill="#C98989"/>
<path d="M49.3569 99.9976L57.5105 109.784L54.2489 177.746L28.702 177.203L24.3535 117.94L29.7888 102.716L33.5174 97.6417L40.1166 107.609L49.3569 99.9976Z" fill="#DE4242"/>
<path d="M62.4024 135.338L68.3815 158.174L62.4024 181.009L72.1864 194.058L80.8833 152.737C80.8833 152.737 74.3606 119.027 73.817 115.221C73.2735 111.415 72.1864 110.872 72.1864 110.872L67.8379 111.415L62.4024 135.338Z" fill="#2F2E41"/>
<path d="M18.9182 144.037L15.1132 151.106L14.0258 163.067L16.2 176.659L8.59044 189.165L0.98089 154.911L9.13388 110.871H12.3955L18.9182 144.037Z" fill="#2F2E41"/>
<path d="M65.1201 272.895C65.1201 272.895 72.7299 275.07 75.4477 275.613C78.1655 276.157 73.817 286.487 73.817 286.487C73.817 286.487 71.0993 300.624 70.5557 303.342C70.0121 306.061 66.2072 315.304 61.3152 316.391C56.4232 317.478 59.6845 297.361 59.6845 297.361C59.6845 297.361 57.5103 290.837 57.5103 288.662C57.5103 286.487 60.7717 287.575 60.7717 287.575C69.4686 286.487 65.1201 272.895 65.1201 272.895Z" fill="#2F2E41"/>
<path d="M47.1828 314.76C46.6392 318.022 47.7263 318.022 39.0294 319.109C30.3325 320.197 32.5067 313.129 32.5067 313.129C32.8703 309.797 33.5995 306.515 34.681 303.342C36.3116 298.992 45.0085 304.43 45.0085 304.43C45.0085 304.43 47.7263 311.498 47.1828 314.76Z" fill="#2F2E41"/>
<path d="M34.6669 85.1536L34.3836 89.989C34.3836 89.989 30.8762 82.0554 30.3326 73.8999C29.7891 65.7443 39.0296 64.1132 44.4651 63.5695C49.9006 63.0258 59.1411 66.8317 59.1411 71.1814C59.1411 75.531 49.3571 74.4436 45.5522 73.3562C41.7473 72.2688 40.1166 81.5117 40.1166 81.5117L37.9424 82.0554L34.6669 85.1536Z" fill="#2F2E41"/>
<path d="M52.5653 103.848L49.357 99.9976L40.1166 107.609L49.357 114.134L52.5653 103.848Z" fill="#DE4242"/>
<path d="M29.7888 102.716L33.5938 97.8228L40.1166 107.609L31.9631 113.59L29.7888 102.716Z" fill="#DE4242"/>
<path d="M64.033 142.95L61.8588 163.611L66.2072 176.116L68.925 188.077C68.925 188.077 68.925 199.495 58.0539 200.039C47.1828 200.582 37.9423 165.786 37.9423 165.786C37.9423 165.786 36.3117 173.397 35.2246 177.747C34.1374 182.097 15.6565 199.495 15.6565 199.495C15.6565 199.495 11.3081 198.951 7.50317 190.252C3.69827 181.553 15.113 173.397 15.113 173.397L18.3743 161.98L17.2872 147.843L9.67736 110.872L32.235 99.182L29.789 130.445L37.9423 154.911L50.1723 100.813L54.249 103.803L71.6428 110.872L64.033 142.95Z" fill="#2F2E41"/>
<path d="M278.852 225.186C279.926 225.177 281.014 225.17 282.081 225.137L282.048 224.06C280.992 224.093 279.911 224.107 278.851 224.108C277.787 224.108 276.703 224.091 275.627 224.056L275.592 225.133C276.68 225.168 277.776 225.186 278.852 225.186ZM288.556 224.731C290.701 224.528 292.866 224.253 294.993 223.913L294.823 222.849C292.719 223.185 290.577 223.458 288.455 223.659L288.556 224.731ZM269.118 224.719L269.22 223.647C267.099 223.444 264.957 223.169 262.853 222.83L262.682 223.894C264.809 224.236 266.974 224.514 269.118 224.719H269.118ZM301.364 222.684C303.463 222.208 305.576 221.656 307.642 221.045L307.337 220.012C305.293 220.617 303.203 221.162 301.126 221.633L301.364 222.684ZM256.313 222.657L256.552 221.607C254.47 221.132 252.381 220.584 250.342 219.979L250.036 221.012C252.096 221.624 254.208 222.177 256.313 222.657H256.313ZM313.803 219.006C315.829 218.262 317.856 217.442 319.828 216.569L319.392 215.585C317.441 216.447 315.436 217.259 313.432 217.995L313.803 219.006ZM243.878 218.964L244.25 217.953C242.258 217.219 240.26 216.408 238.311 215.543L237.874 216.528C239.845 217.403 241.864 218.222 243.878 218.964H243.878ZM325.681 213.75C327.588 212.754 329.492 211.681 331.34 210.56L330.781 209.639C328.953 210.748 327.069 211.809 325.183 212.794L325.681 213.75ZM232.037 213.71L232.536 212.755C230.654 211.771 228.775 210.71 226.951 209.601L226.392 210.522C228.235 211.643 230.134 212.715 232.037 213.71H232.037ZM336.781 207.016C338.547 205.783 340.297 204.476 341.983 203.131L341.311 202.288C339.643 203.619 337.911 204.912 336.164 206.132L336.781 207.016ZM220.96 206.977L221.577 206.094C219.83 204.873 218.101 203.58 216.437 202.251L215.765 203.092C217.447 204.436 219.194 205.743 220.96 206.977ZM346.926 198.922C348.522 197.472 350.092 195.953 351.59 194.408L350.817 193.658C349.334 195.187 347.781 196.689 346.202 198.124L346.926 198.922ZM210.827 198.884L211.551 198.087C209.976 196.655 208.424 195.152 206.939 193.619L206.166 194.368C207.666 195.917 209.234 197.437 210.827 198.884ZM355.956 189.608C357.354 187.969 358.717 186.264 360.007 184.54L359.145 183.894C357.868 185.6 356.52 187.287 355.137 188.908L355.956 189.608ZM201.801 189.563L202.62 188.865C201.237 187.242 199.889 185.552 198.612 183.845L197.75 184.49C199.04 186.216 200.403 187.923 201.801 189.563V189.563ZM363.726 179.224C364.904 177.419 366.038 175.555 367.097 173.684L366.159 173.154C365.112 175.005 363.99 176.85 362.824 178.635L363.726 179.224ZM194.03 179.166L194.932 178.578C193.766 176.789 192.644 174.941 191.597 173.085L190.658 173.615C191.717 175.491 192.851 177.358 194.03 179.166ZM370.105 167.94C371.042 166.001 371.927 164.008 372.736 162.016L371.738 161.611C370.938 163.581 370.062 165.553 369.135 167.471L370.105 167.94ZM187.649 167.856L188.619 167.388C187.692 165.467 186.816 163.489 186.015 161.51L185.016 161.914C185.826 163.915 186.712 165.914 187.649 167.856ZM374.985 155.928C375.666 153.881 376.289 151.788 376.835 149.706L375.793 149.432C375.253 151.492 374.637 153.563 373.963 155.587L374.985 155.928ZM182.772 155.814L183.795 155.475C183.125 153.453 182.511 151.381 181.972 149.318L180.929 149.59C181.475 151.677 182.095 153.77 182.772 155.814ZM378.28 143.379C378.692 141.265 379.04 139.11 379.315 136.972L378.247 136.834C377.974 138.949 377.63 141.082 377.223 143.173L378.28 143.379ZM179.492 143.261L180.549 143.056C180.145 140.966 179.803 138.832 179.533 136.716L178.464 136.853C178.737 138.992 179.083 141.148 179.492 143.261V143.261ZM379.938 130.513C380.076 128.365 380.147 126.182 380.15 124.025L379.072 124.024C379.07 126.159 379 128.318 378.863 130.443L379.938 130.513ZM177.849 130.392L178.924 130.324C178.79 128.201 178.722 126.041 178.722 123.906L178.722 123.67H177.645L177.645 123.902C177.645 126.064 177.713 128.246 177.849 130.392ZM378.878 117.606L379.953 117.539C379.819 115.388 379.615 113.214 379.345 111.078L378.277 111.212C378.544 113.326 378.746 115.477 378.878 117.606ZM178.938 117.252C179.078 115.122 179.288 112.972 179.562 110.862L178.495 110.723C178.217 112.856 178.005 115.029 177.863 117.182L178.938 117.252ZM377.268 104.872L378.326 104.668C377.919 102.554 377.438 100.424 376.896 98.3378L375.853 98.6087C376.39 100.673 376.866 102.78 377.268 104.872ZM180.595 104.524C181.005 102.431 181.489 100.326 182.032 98.2663L180.99 97.9917C180.441 100.073 179.952 102.201 179.538 104.317L180.595 104.524ZM374.037 92.4497L375.06 92.112C374.384 90.0647 373.631 88.0111 372.823 86.008L371.824 86.4114C372.624 88.393 373.368 90.4245 374.037 92.4497ZM183.868 92.1138C184.545 90.0915 185.295 88.0658 186.099 86.0927L185.102 85.686C184.289 87.6804 183.53 89.728 182.847 91.7719L183.868 92.1138ZM369.226 80.5297L370.197 80.0625C369.262 78.1197 368.252 76.181 367.194 74.3007L366.255 74.8295C367.302 76.6895 368.301 78.6074 369.226 80.5297ZM188.71 80.2359C189.637 78.3227 190.64 76.412 191.692 74.5567L190.755 74.0253C189.692 75.9003 188.678 77.8319 187.741 79.7661L188.71 80.2359ZM362.926 69.3326L363.829 68.7449C362.654 66.9389 361.405 65.1462 360.116 63.4172L359.252 64.0611C360.527 65.772 361.764 67.5454 362.926 69.3326ZM195.034 69.079C196.199 67.2984 197.439 65.5305 198.719 63.8244L197.858 63.1778C196.564 64.9023 195.31 66.6892 194.132 68.4887L195.034 69.079ZM355.25 59.0366L356.071 58.339C354.675 56.6973 353.209 55.0791 351.711 53.5295L350.937 54.2781C352.418 55.8114 353.869 57.4126 355.25 59.0366ZM202.733 58.8146C204.118 57.195 205.574 55.5986 207.059 54.0698L206.287 53.319C204.785 54.8639 203.314 56.4774 201.915 58.1144L202.733 58.8146ZM346.33 49.8044L347.055 49.0079C345.462 47.5556 343.802 46.1376 342.122 44.7934L341.449 45.6346C343.111 46.9646 344.753 48.3677 346.33 49.8044ZM211.68 49.609C213.259 48.1788 214.906 46.7799 216.575 45.4515L215.904 44.6082C214.217 45.9511 212.553 47.3647 210.957 48.8104L211.68 49.609ZM336.313 41.7849L336.931 40.9026C335.169 39.6671 333.343 38.4726 331.504 37.352L330.943 38.2722C332.763 39.3809 334.57 40.5628 336.313 41.7849ZM221.726 41.6134C223.48 40.3926 225.292 39.2147 227.114 38.1122L226.556 37.1905C224.715 38.3045 222.883 39.4951 221.111 40.729L221.726 41.6134ZM325.362 35.1114L325.862 34.157C323.958 33.158 321.995 32.2073 320.029 31.3316L319.591 32.316C321.536 33.1822 323.478 34.1228 325.362 35.1114ZM232.716 34.9635C234.607 33.9787 236.557 33.0425 238.51 32.1808L238.075 31.1949C236.101 32.0658 234.13 33.0123 232.218 34.0076L232.716 34.9635ZM313.654 29.8991L314.028 28.8884C312.008 28.1411 309.937 27.4498 307.872 26.834L307.565 27.8668C309.607 28.4757 311.656 29.1597 313.654 29.8991H313.654ZM244.473 29.7768C246.475 29.0442 248.526 28.3676 250.569 27.7663L250.265 26.7325C248.2 27.3404 246.126 28.0243 244.102 28.7651L244.473 29.7768ZM301.357 26.2319L301.597 25.1819C299.502 24.7015 297.359 24.283 295.229 23.9371L295.057 25.0009C297.164 25.3428 299.284 25.7569 301.357 26.2319ZM256.783 26.1536C258.86 25.6853 260.981 25.2787 263.088 24.9446L262.919 23.8803C260.79 24.218 258.646 24.6292 256.546 25.1024L256.783 26.1536ZM288.691 24.1762L288.795 23.104C286.656 22.8965 284.478 22.7547 282.321 22.6829L282.285 23.7598C284.42 23.8309 286.575 23.971 288.691 24.1762ZM269.457 24.1428C271.576 23.9448 273.732 23.8122 275.863 23.7488L275.831 22.6719C273.677 22.7361 271.498 22.8699 269.356 23.0701L269.457 24.1428Z" fill="#D0CDE1"/>
<path d="M282.667 50.6399C268.687 50.6399 257.354 39.3037 257.354 25.3199C257.354 11.3361 268.687 0 282.667 0C296.647 0 307.98 11.3361 307.98 25.3199C307.98 39.3037 296.647 50.6399 282.667 50.6399Z" fill="#323057"/>
<path d="M184.646 119.596C170.666 119.596 159.333 108.26 159.333 94.2764C159.333 80.2925 170.666 68.9564 184.646 68.9564C198.626 68.9564 209.959 80.2925 209.959 94.2764C209.959 108.26 198.626 119.596 184.646 119.596Z" fill="#323057"/>
<path d="M215.345 225.186C201.365 225.186 190.032 213.85 190.032 199.866C190.032 185.882 201.365 174.546 215.345 174.546C229.325 174.546 240.658 185.882 240.658 199.866C240.658 213.85 229.325 225.186 215.345 225.186Z" fill="#323057"/>
<path d="M337.687 229.037C323.707 229.037 312.374 217.701 312.374 203.717C312.374 189.733 323.707 178.397 337.687 178.397C351.667 178.397 363 189.733 363 203.717C363 217.701 351.667 229.037 337.687 229.037Z" fill="#323057"/>
<path d="M373.345 119.186C359.365 119.186 348.032 107.85 348.032 93.8658C348.032 79.882 359.365 68.5459 373.345 68.5459C387.325 68.5459 398.658 79.882 398.658 93.8658C398.658 107.85 387.325 119.186 373.345 119.186Z" fill="#323057"/>
<g clip-path="url(#clip1_78_1622)">
<path d="M386 93.9614V94.8332L385.975 94.973C385.933 95.3541 385.903 95.7351 385.844 96.1072C385.644 97.3147 385.212 98.4718 384.57 99.5141C383.627 101.08 382.255 102.344 380.617 103.157C379.664 103.636 378.634 103.944 377.574 104.067C377.337 104.097 377.101 104.123 376.868 104.148H367.731C367.685 104.14 367.642 104.127 367.595 104.123C366.679 104.067 365.78 103.848 364.942 103.475C363.101 102.654 361.73 101.329 360.833 99.5059C360.439 98.6982 360.183 97.8301 360.076 96.9376L359.999 96.286V95.4394C360.007 95.3931 360.02 95.3459 360.024 95.2996C360.071 94.4912 360.236 93.6998 360.524 92.9426C361.298 90.9072 362.653 89.396 364.574 88.4145C365.559 87.9152 366.639 87.631 367.743 87.5809C368.289 87.5557 368.835 87.5809 369.372 87.6572C369.4 87.6605 369.429 87.6576 369.456 87.6488C369.483 87.64 369.508 87.6254 369.529 87.6061C370.297 86.8046 371.197 86.1419 372.191 85.6471C373.149 85.165 374.185 84.8543 375.251 84.729C375.505 84.6997 375.758 84.6737 376.008 84.6486H376.786C376.837 84.6567 376.892 84.6656 376.939 84.6697C377.328 84.716 377.713 84.7461 378.098 84.8135C379.279 85.0166 380.413 85.4521 381.425 86.0956C382.983 87.0671 384.231 88.4633 385.022 90.1199C385.495 91.0933 385.8 92.1431 385.923 93.218L385.999 93.9631L386 93.9614ZM371.46 88.3284C371.477 88.3495 371.481 88.3625 371.489 88.3625C372.022 88.6331 372.534 88.9467 373.016 89.3017C373.046 89.3229 373.122 89.3147 373.16 89.2936C374.48 88.4389 375.919 88.1472 377.46 88.4218C378.97 88.6972 380.202 89.4626 381.141 90.6903C382.203 92.0781 382.609 93.6486 382.318 95.3914C382.119 96.5598 381.657 97.6128 380.875 98.4895C379.445 100.093 377.654 100.758 375.547 100.478C374.252 100.305 373.131 99.7334 372.204 98.7812C371.014 97.5624 369.817 96.3477 368.624 95.129C368.463 94.9641 368.29 94.8373 368.061 94.8072C367.869 94.7807 367.674 94.8171 367.504 94.911C367.335 95.0049 367.201 95.1513 367.122 95.3281C366.969 95.6498 366.991 96.0179 367.325 96.3518C368.653 97.6802 369.969 99.0217 371.299 100.351C371.527 100.579 371.772 100.791 372.031 100.981C373 101.696 374.096 102.095 375.281 102.255C376.212 102.378 377.134 102.353 378.048 102.141C379.796 101.743 381.243 100.838 382.381 99.4369C383.313 98.2995 383.904 96.9219 384.087 95.4629C384.204 94.6116 384.181 93.7467 384.019 92.9027C383.753 91.5272 383.181 90.2962 382.263 89.2465C380.512 87.2445 378.306 86.3516 375.683 86.5506C374.68 86.6353 373.706 86.9278 372.822 87.4094C372.337 87.6643 371.881 87.9722 371.464 88.3276L371.46 88.3284ZM370.821 102.294C370.783 102.259 370.749 102.226 370.711 102.192C370.169 101.671 369.623 101.151 369.086 100.622C369.043 100.574 368.989 100.536 368.929 100.51C368.869 100.485 368.804 100.472 368.739 100.474C368.193 100.487 367.651 100.491 367.114 100.369C364.448 99.7554 362.899 96.806 363.881 94.2117C364.656 92.1674 366.801 90.9235 368.917 91.3046C369.865 91.4784 370.699 91.8887 371.384 92.6037C372.218 93.4796 373.072 94.3262 373.919 95.194C374.109 95.389 374.329 95.4816 374.596 95.4434C374.935 95.3922 375.209 95.2273 375.332 94.8844C375.455 94.5456 375.395 94.2287 375.146 93.9704C374.261 93.0604 373.398 92.1252 372.48 91.2534C370.694 89.5609 368.591 89.0572 366.264 89.7762C363.136 90.7456 361.304 94.0289 362.019 97.2707C362.671 100.229 365.214 102.298 368.185 102.303H370.678C370.716 102.303 370.758 102.298 370.822 102.294L370.821 102.294Z" fill="#5F52F4"/>
</g>
<path d="M339.309 203.815L337.894 202.4C337.57 202.076 337.131 201.894 336.673 201.892C336.215 201.891 335.775 202.071 335.449 202.394L325.616 211.468C325.255 211.788 325.035 212.237 325.002 212.717C324.991 212.956 325.03 213.195 325.116 213.418C325.202 213.641 325.333 213.844 325.5 214.014L327.613 216.15L327.617 216.154C327.943 216.479 328.385 216.663 328.846 216.664H328.91C329.148 216.651 329.382 216.59 329.598 216.487C329.813 216.383 330.006 216.237 330.165 216.059L339.303 206.271C339.629 205.947 339.814 205.507 339.816 205.048C339.818 204.588 339.637 204.146 339.313 203.82L339.309 203.815Z" fill="#5F52F4"/>
<path d="M350.675 200.956L350.659 200.939L348.802 199.101C348.693 198.993 348.564 198.907 348.422 198.849C348.28 198.791 348.128 198.761 347.975 198.762C347.726 198.763 347.483 198.841 347.282 198.987C347.282 198.963 347.285 198.941 347.287 198.921C347.362 198.446 347.261 197.961 347.005 197.554C346.596 197.003 346.147 196.483 345.662 195.998L345.657 195.993C344.3 194.691 342.706 193.663 340.96 192.963C340.048 192.589 339.071 192.396 338.085 192.397C336.808 192.386 335.568 192.82 334.577 193.626C334.295 193.895 334.038 194.189 333.809 194.504C333.7 194.655 333.642 194.838 333.644 195.024C333.647 195.211 333.71 195.392 333.823 195.54C333.937 195.688 334.095 195.795 334.274 195.846C334.454 195.897 334.645 195.889 334.819 195.823C334.971 195.766 335.127 195.718 335.284 195.68C335.613 195.611 335.949 195.59 336.284 195.618C336.977 195.69 337.641 195.934 338.217 196.327C338.54 196.599 338.796 196.94 338.968 197.326C339.139 197.712 339.22 198.131 339.206 198.553C338.965 199.238 338.598 199.871 338.123 200.42C337.996 200.587 337.934 200.795 337.948 201.004C337.963 201.213 338.053 201.41 338.201 201.558L340.065 203.422C340.222 203.579 340.432 203.67 340.654 203.676C340.876 203.682 341.091 203.603 341.257 203.455C341.784 202.985 342.586 202.275 342.867 202.101C343.107 201.941 343.379 201.834 343.663 201.787C343.876 201.766 344.089 201.811 344.275 201.916C344.276 201.925 344.275 201.935 344.272 201.943C344.269 201.952 344.264 201.96 344.258 201.967L344.16 202.061L344.143 202.076C343.924 202.294 343.801 202.591 343.8 202.9C343.8 203.209 343.922 203.506 344.14 203.725L344.146 203.731L346.002 205.567C346.11 205.676 346.24 205.761 346.382 205.819C346.524 205.878 346.676 205.907 346.829 205.906C347.138 205.906 347.434 205.786 347.654 205.57L350.66 202.601C350.67 202.59 350.681 202.58 350.69 202.569C350.892 202.348 351.003 202.058 351 201.759C350.997 201.46 350.881 201.173 350.675 200.956Z" fill="#5F52F4"/>
<path d="M219 198.397C218.802 198.397 218.609 198.338 218.444 198.228C218.28 198.118 218.152 197.962 218.076 197.78C218 197.597 217.981 197.396 218.019 197.202C218.058 197.008 218.153 196.83 218.293 196.69L220.586 194.397L218.293 192.104C218.105 191.916 218 191.662 218 191.397C218 191.132 218.105 190.877 218.293 190.69C218.48 190.502 218.735 190.397 219 190.397C219.265 190.397 219.52 190.502 219.707 190.69L222.707 193.69C222.8 193.783 222.874 193.893 222.924 194.014C222.974 194.136 223 194.266 223 194.397C223 194.528 222.974 194.658 222.924 194.78C222.874 194.901 222.8 195.011 222.707 195.104L219.707 198.104C219.614 198.197 219.504 198.271 219.383 198.321C219.261 198.371 219.131 198.397 219 198.397Z" fill="#5F52F4"/>
<path d="M203 201.397C202.869 201.397 202.739 201.371 202.617 201.321C202.496 201.271 202.386 201.197 202.293 201.104C202.2 201.011 202.126 200.901 202.076 200.78C202.026 200.658 202 200.528 202 200.397V199.397C202.008 197.809 202.642 196.287 203.765 195.164C204.888 194.041 206.409 193.406 207.997 193.397H221C221.265 193.397 221.52 193.502 221.707 193.69C221.895 193.877 222 194.132 222 194.397C222 194.662 221.895 194.916 221.707 195.104C221.52 195.292 221.265 195.397 221 195.397H208C206.941 195.403 205.926 195.827 205.177 196.576C204.429 197.326 204.005 198.34 204 199.4V200.397C204 200.528 203.974 200.658 203.924 200.78C203.874 200.901 203.8 201.011 203.707 201.104C203.614 201.197 203.504 201.271 203.383 201.321C203.261 201.371 203.131 201.397 203 201.397Z" fill="#5F52F4"/>
<path d="M211 209.397C210.869 209.397 210.739 209.371 210.617 209.321C210.496 209.271 210.386 209.197 210.293 209.104L207.293 206.104C207.2 206.011 207.126 205.901 207.076 205.78C207.026 205.658 207 205.528 207 205.397C207 205.266 207.026 205.136 207.076 205.014C207.126 204.893 207.2 204.783 207.293 204.69L210.293 201.69C210.481 201.503 210.735 201.397 211 201.398C211.265 201.398 211.519 201.503 211.706 201.69C211.894 201.878 211.999 202.132 211.999 202.397C211.999 202.662 211.894 202.916 211.707 203.104L209.414 205.397L211.707 207.69C211.847 207.83 211.942 208.008 211.981 208.202C212.019 208.396 212 208.597 211.924 208.78C211.848 208.962 211.72 209.118 211.556 209.228C211.391 209.338 211.198 209.397 211 209.397Z" fill="#5F52F4"/>
<path d="M209 206.397C208.735 206.397 208.48 206.292 208.293 206.104C208.105 205.916 208 205.662 208 205.397C208 205.132 208.105 204.877 208.293 204.69C208.48 204.502 208.735 204.397 209 204.397H222C223.059 204.391 224.074 203.967 224.823 203.217C225.571 202.468 225.994 201.453 226 200.394V199.397C226 199.132 226.105 198.877 226.293 198.69C226.48 198.502 226.735 198.397 227 198.397C227.265 198.397 227.52 198.502 227.707 198.69C227.895 198.877 228 199.132 228 199.397V200.397C227.992 201.985 227.358 203.506 226.235 204.63C225.112 205.753 223.591 206.388 222.003 206.397L209 206.397Z" fill="#5F52F4"/>
<path d="M179.154 103.858H177.923C177.678 103.858 177.443 103.761 177.27 103.588C177.097 103.415 177 103.18 177 102.935V97.3969C177 97.1521 177.097 96.9173 177.27 96.7442C177.443 96.5711 177.678 96.4738 177.923 96.4738H179.154C179.399 96.4738 179.633 96.5711 179.807 96.7442C179.98 96.9173 180.077 97.1521 180.077 97.3969V102.935C180.077 103.18 179.98 103.415 179.807 103.588C179.633 103.761 179.399 103.858 179.154 103.858Z" fill="#5F52F4"/>
<path d="M187.769 103.858H186.538C186.294 103.858 186.059 103.761 185.886 103.588C185.713 103.415 185.615 103.18 185.615 102.935V93.7046C185.615 93.4598 185.713 93.225 185.886 93.0519C186.059 92.8788 186.294 92.7816 186.538 92.7816H187.769C188.014 92.7816 188.249 92.8788 188.422 93.0519C188.595 93.225 188.692 93.4598 188.692 93.7046V102.935C188.692 103.18 188.595 103.415 188.422 103.588C188.249 103.761 188.014 103.858 187.769 103.858Z" fill="#5F52F4"/>
<path d="M192.077 103.858H190.846C190.601 103.858 190.367 103.761 190.193 103.588C190.02 103.415 189.923 103.18 189.923 102.935V89.3969C189.923 89.1521 190.02 88.9173 190.193 88.7442C190.367 88.5711 190.601 88.4738 190.846 88.4738H192.077C192.322 88.4738 192.557 88.5711 192.73 88.7442C192.903 88.9173 193 89.1521 193 89.3969V102.935C193 103.18 192.903 103.415 192.73 103.588C192.557 103.761 192.322 103.858 192.077 103.858Z" fill="#5F52F4"/>
<path d="M183.462 103.858H182.231C181.986 103.858 181.751 103.761 181.578 103.588C181.405 103.415 181.308 103.18 181.308 102.935V86.32C181.308 86.0752 181.405 85.8404 181.578 85.6673C181.751 85.4942 181.986 85.3969 182.231 85.3969H183.462C183.706 85.3969 183.941 85.4942 184.114 85.6673C184.287 85.8404 184.385 86.0752 184.385 86.32V102.935C184.385 103.057 184.361 103.177 184.314 103.289C184.268 103.401 184.2 103.502 184.114 103.588C184.029 103.674 183.927 103.742 183.815 103.788C183.703 103.835 183.583 103.858 183.462 103.858Z" fill="#5F52F4"/>
</g>
<path d="M291.125 15.4375C291.506 15.4375 291.872 15.589 292.141 15.8585C292.411 16.1281 292.562 16.4938 292.562 16.875V34.125C292.562 34.5062 292.411 34.8719 292.141 35.1415C291.872 35.411 291.506 35.5625 291.125 35.5625H273.875C273.494 35.5625 273.128 35.411 272.859 35.1415C272.589 34.8719 272.438 34.5062 272.438 34.125V16.875C272.438 16.4938 272.589 16.1281 272.859 15.8585C273.128 15.589 273.494 15.4375 273.875 15.4375H291.125ZM273.875 14C273.113 14 272.381 14.3029 271.842 14.8421C271.303 15.3812 271 16.1125 271 16.875V34.125C271 34.8875 271.303 35.6188 271.842 36.1579C272.381 36.6971 273.113 37 273.875 37H291.125C291.887 37 292.619 36.6971 293.158 36.1579C293.697 35.6188 294 34.8875 294 34.125V16.875C294 16.1125 293.697 15.3812 293.158 14.8421C292.619 14.3029 291.887 14 291.125 14H273.875Z" fill="#5F52F4"/>
<path d="M280.853 20.6786C280.92 20.7454 280.973 20.8247 281.009 20.912C281.045 20.9994 281.064 21.093 281.064 21.1875C281.064 21.282 281.045 21.3757 281.009 21.463C280.973 21.5503 280.92 21.6296 280.853 21.6964L277.048 25.5L280.853 29.3036C280.988 29.4386 281.063 29.6216 281.063 29.8125C281.063 30.0034 280.988 30.1864 280.853 30.3214C280.718 30.4563 280.535 30.5322 280.344 30.5322C280.153 30.5322 279.97 30.4563 279.835 30.3214L275.522 26.0089C275.455 25.9421 275.402 25.8628 275.366 25.7755C275.33 25.6882 275.311 25.5945 275.311 25.5C275.311 25.4055 275.33 25.3119 275.366 25.2245C275.402 25.1372 275.455 25.0579 275.522 24.9911L279.835 20.6786C279.902 20.6117 279.981 20.5586 280.068 20.5224C280.156 20.4861 280.249 20.4675 280.344 20.4675C280.438 20.4675 280.532 20.4861 280.619 20.5224C280.707 20.5586 280.786 20.6117 280.853 20.6786ZM284.147 20.6786C284.08 20.7454 284.027 20.8247 283.991 20.912C283.955 20.9994 283.936 21.093 283.936 21.1875C283.936 21.282 283.955 21.3757 283.991 21.463C284.027 21.5503 284.08 21.6296 284.147 21.6964L287.952 25.5L284.147 29.3036C284.012 29.4386 283.937 29.6216 283.937 29.8125C283.937 30.0034 284.012 30.1864 284.147 30.3214C284.282 30.4563 284.465 30.5322 284.656 30.5322C284.847 30.5322 285.03 30.4563 285.165 30.3214L289.478 26.0089C289.545 25.9421 289.598 25.8628 289.634 25.7755C289.67 25.6882 289.689 25.5945 289.689 25.5C289.689 25.4055 289.67 25.3119 289.634 25.2245C289.598 25.1372 289.545 25.0579 289.478 24.9911L285.165 20.6786C285.098 20.6117 285.019 20.5586 284.932 20.5224C284.844 20.4861 284.751 20.4675 284.656 20.4675C284.562 20.4675 284.468 20.4861 284.381 20.5224C284.293 20.5586 284.214 20.6117 284.147 20.6786Z" fill="#5F52F4"/>
<defs>
<clipPath id="clip0_78_1622">
<rect width="399" height="327.794" fill="white" transform="matrix(-1 0 0 1 399 0)"/>
</clipPath>
<clipPath id="clip1_78_1622">
<rect width="26" height="26" fill="white" transform="translate(360 81.3969)"/>
</clipPath>
</defs>
</svg>
